<?xml version="1.0" standalone="no"?>
<!DOCTYPE svg PUBLIC "-//W3C//DTD SVG 1.1//EN" "http://www.w3.org/Graphics/SVG/1.1/DTD/svg11.dtd" >
<svg xmlns="http://www.w3.org/2000/svg" xmlns:xlink="http://www.w3.org/1999/xlink" version="1.1">
<metadata>
Created by FontForge 20161003 at Wed May  9 16:48:59 2018
 By www-data
(c) 1990, 2002 Adobe Systems Incorporated. All rights reserved.
</metadata>
<defs>
<font id="HelveticaNeueLTStdBlkCn_4" horiz-adv-x="520" >
  <font-face 
    font-family="HelveticaNeueLTStdBlkCn_4"
    font-weight="900"
    font-stretch="condensed"
    units-per-em="1000"
    panose-1="2 11 9 6 3 7 2 4 2 4"
    ascent="714"
    descent="-286"
    x-height="541"
    cap-height="714"
    bbox="-165 -230 1099 972"
    underline-thickness="50"
    underline-position="-150"
    unicode-range="U+0020-FB02"
  />
<missing-glyph horiz-adv-x="500" 
d="M0 0v700h500v-700h-500zM250 395l170 255h-340zM280 350l170 -255v510zM80 50h340l-170 255zM50 605v-510l170 255z" />
    <glyph glyph-name="f_i" unicode="fi" horiz-adv-x="556" 
d="M337 0v541h180v-541h-180zM337 580v134h180v-134h-180zM62 0v420h-62v121h62v39q0 82 37 115t130 33q44 0 86 -6v-113q-13 3 -30 3q-18 0 -30.5 -9.5t-12.5 -28.5v-33h73v-121h-73v-420h-180z" />
    <glyph glyph-name="f_l" unicode="fl" horiz-adv-x="556" 
d="M337 0v714h180v-714h-180zM62 0v420h-62v121h62v39q0 82 37 115t130 33q44 0 86 -6v-113q-13 3 -30 3q-18 0 -30.5 -9.5t-12.5 -28.5v-33h73v-121h-73v-420h-180z" />
    <glyph glyph-name=".notdef" horiz-adv-x="500" 
d="M0 0v700h500v-700h-500zM250 395l170 255h-340zM280 350l170 -255v510zM80 50h340l-170 255zM50 605v-510l170 255z" />
    <glyph glyph-name=".null" horiz-adv-x="0" 
 />
    <glyph glyph-name="nonmarkingreturn" horiz-adv-x="333" 
 />
    <glyph glyph-name="space" unicode=" " horiz-adv-x="260" 
 />
    <glyph glyph-name="exclam" unicode="!" horiz-adv-x="314" 
d="M74 0v158h168v-158h-168zM89 207l-19 268v239h174v-239l-21 -268h-134z" />
    <glyph glyph-name="quotedbl" unicode="&#x22;" horiz-adv-x="481" 
d="M286 340v374h140v-374h-140zM55 340v374h140v-374h-140z" />
    <glyph glyph-name="numbersign" unicode="#" 
d="M222 405l-14 -116h89l15 116h-90zM261 0l22 173h-90l-22 -173h-110l22 173h-73v116h88l14 116h-73v116h88l22 173h110l-22 -173h89l22 173h110l-22 -173h74v-116h-88l-15 -116h74v-116h-88l-22 -173h-110z" />
    <glyph glyph-name="dollar" unicode="$" 
d="M206 -104v90q-98 11 -145.5 56.5t-47.5 138.5v27h180v-19q0 -79 62 -79q28 0 44 18.5t16 46.5q0 37 -30 61t-73 40t-86 36.5t-73 65.5t-30 113q0 187 183 217v58h92v-58q100 -10 145 -61t45 -153h-174v15q0 32 -13.5 53.5t-39.5 21.5q-28 0 -43 -18.5t-15 -43.5
q0 -29 17 -49t43.5 -32t59 -23.5t65 -27.5t59 -38t43.5 -61t17 -91q0 -99 -52.5 -151t-156.5 -63v-90h-92z" />
    <glyph glyph-name="percent" unicode="%" horiz-adv-x="778" 
d="M569 178q0 -69 6.5 -90.5t28.5 -21.5t28.5 21.5t6.5 90.5t-6.5 90.5t-28.5 21.5t-28.5 -21.5t-6.5 -90.5zM175 -14l317 722h110l-317 -722h-110zM139 516q0 -69 6.5 -90.5t28.5 -21.5t28.5 21.5t6.5 90.5t-6.5 90.5t-28.5 21.5t-28.5 -21.5t-6.5 -90.5zM447 178
q0 105 34.5 148.5t122.5 43.5t122.5 -43.5t34.5 -148.5t-34.5 -148.5t-122.5 -43.5t-122.5 43.5t-34.5 148.5zM17 516q0 105 34.5 148.5t122.5 43.5t122.5 -43.5t34.5 -148.5t-34.5 -148.5t-122.5 -43.5t-122.5 43.5t-34.5 148.5z" />
    <glyph glyph-name="ampersand" unicode="&#x26;" horiz-adv-x="611" 
d="M528 134l96 -134h-198l-31 42q-33 -19 -53 -29t-52.5 -18.5t-67.5 -8.5q-94 0 -156.5 52.5t-62.5 148.5q0 63 33.5 117t100.5 90q-68 93 -68 162q0 74 55.5 120t146.5 46q93 0 148.5 -45.5t55.5 -120.5q0 -104 -124 -183l81 -109q21 33 24 84h156q-7 -138 -84 -214z
M219 568q0 -28 47 -88q59 54 59 88q0 22 -15 36t-38 14t-38 -14t-15 -36zM316 150l-95 129q-44 -33 -44 -72q0 -34 23.5 -57.5t53.5 -23.5q32 0 62 24z" />
    <glyph glyph-name="quotesingle" unicode="'" horiz-adv-x="260" 
d="M60 340v374h140v-374h-140z" />
    <glyph glyph-name="parenleft" unicode="(" horiz-adv-x="314" 
d="M318 -184h-146q-142 223 -142 449t142 449h146q-120 -199 -120 -449t120 -449z" />
    <glyph glyph-name="parenright" unicode=")" horiz-adv-x="314" 
d="M-4 714h146q142 -223 142 -449t-142 -449h-146q120 199 120 449t-120 449z" />
    <glyph glyph-name="asterisk" unicode="*" horiz-adv-x="406" 
d="M278 322l-75 108l-75 -108l-80 58l76 107l-128 41l31 93l127 -41v134h98v-134l127 41l31 -93l-128 -41l76 -107z" />
    <glyph glyph-name="plus" unicode="+" horiz-adv-x="600" 
d="M230 323v183h140v-183h183v-140h-183v-183h-140v183h-183v140h183z" />
    <glyph glyph-name="comma" unicode="," horiz-adv-x="260" 
d="M46 6v192h168v-180q0 -98 -40 -145.5t-128 -48.5v86q35 4 49.5 23.5t14.5 60.5v12h-64z" />
    <glyph glyph-name="hyphen" unicode="-" horiz-adv-x="368" 
d="M28 213v152h312v-152h-312z" />
    <glyph glyph-name="period" unicode="." horiz-adv-x="260" 
d="M46 0v198h168v-198h-168z" />
    <glyph glyph-name="slash" unicode="/" horiz-adv-x="333" 
d="M-22 -14l227 742h150l-227 -742h-150z" />
    <glyph glyph-name="zero" unicode="0" 
d="M19 347q0 141 26.5 220.5t77 110t137.5 30.5t137.5 -30.5t77 -110t26.5 -220.5t-26.5 -220.5t-77 -110t-137.5 -30.5t-137.5 30.5t-77 110t-26.5 220.5zM205 464v-234q0 -74 12.5 -101t42.5 -27t42.5 27t12.5 101v234q0 74 -12.5 101t-42.5 27t-42.5 -27t-12.5 -101z" />
    <glyph glyph-name="one" unicode="1" 
d="M369 0h-186v482h-134v116q87 1 127.5 24t58.5 86h134v-708z" />
    <glyph glyph-name="two" unicode="2" 
d="M199 468h-174q2 122 44 174q53 66 188 66q129 0 178.5 -51.5t49.5 -141.5q0 -122 -88 -210l-110 -107q-40 -40 -46 -58h244v-140h-466q0 162 106 271l124 126q28 28 39 52.5t11 63.5q0 79 -48 79q-52 0 -52 -94v-30z" />
    <glyph glyph-name="three" unicode="3" 
d="M195 494h-168q3 111 58 162q55 52 164 52q125 0 174 -48.5t49 -147.5q0 -50 -24 -89.5t-75 -51.5v-2q112 -20 112 -155q0 -118 -57.5 -173t-173.5 -55q-124 0 -179.5 50.5t-55.5 175.5h174q0 -55 13 -84q12 -26 42 -26q32 0 41.5 21t9.5 89q0 51 -15.5 69.5t-52.5 18.5
h-47v116h27q44 0 62.5 20.5t18.5 79.5q0 42 -11 59t-36 17q-27 0 -38.5 -21.5t-11.5 -76.5z" />
    <glyph glyph-name="four" unicode="4" 
d="M156 266h118v236h-2zM16 132v140l224 422h202v-428h62v-134h-62v-132h-174v132h-252z" />
    <glyph glyph-name="five" unicode="5" 
d="M25 301l16 393h411v-140h-269l-8 -119q55 52 131 52q177 0 177 -225q0 -143 -52 -209.5t-180 -66.5q-232 0 -232 203v23h174v-24q0 -48 12.5 -67t38.5 -19q30 0 41.5 28t11.5 124q0 107 -53 107q-51 0 -51 -60h-168z" />
    <glyph glyph-name="six" unicode="6" 
d="M487 526h-174q-2 37 -14 52q-11 14 -37 14q-22 0 -36.5 -17.5t-14.5 -49.5v-113h2q12 25 45 40.5t74 15.5q82 0 125.5 -48.5t43.5 -166.5q0 -140 -59.5 -203.5t-177.5 -63.5q-127 0 -186 67t-59 234v79q0 89 8.5 146.5t34 105t75 69t126.5 21.5q126 0 174.5 -50
t49.5 -132zM211 218q0 -67 11 -91.5t41 -24.5q27 0 39.5 25t12.5 91q0 67 -11 91.5t-41 24.5q-27 0 -39.5 -25t-12.5 -91z" />
    <glyph glyph-name="seven" unicode="7" 
d="M25 542v152h462v-139q-73 -114 -123.5 -267t-61.5 -288h-192q31 310 200 542h-285z" />
    <glyph glyph-name="eight" unicode="8" 
d="M260 -14q-121 0 -181 49.5t-60 174.5q0 67 30.5 111.5t87.5 51.5v2q-105 25 -105 143q0 190 228 190t228 -190q0 -118 -105 -143v-2q60 -11 89 -55t29 -108q0 -125 -60 -174.5t-181 -49.5zM212 507q0 -86 48 -86t48 86q0 85 -48 85t-48 -85zM205 207q0 -60 13.5 -82.5
t41.5 -22.5t41.5 22.5t13.5 82.5q0 59 -13.5 81.5t-41.5 22.5t-41.5 -22.5t-13.5 -81.5z" />
    <glyph glyph-name="nine" unicode="9" 
d="M33 168h174q2 -37 14 -52q11 -14 37 -14q22 0 36.5 17.5t14.5 48.5v113h-2q-12 -25 -45 -40t-74 -15q-82 0 -125.5 48.5t-43.5 166.5q0 140 59.5 203.5t177.5 63.5q127 0 186 -67.5t59 -234.5v-78q0 -89 -8.5 -146.5t-34 -105t-75 -69t-126.5 -21.5q-126 0 -174.5 50
t-49.5 132zM205 476q0 -67 11 -91.5t41 -24.5q27 0 39.5 25t12.5 91q0 67 -11 91.5t-41 24.5q-27 0 -39.5 -25t-12.5 -91z" />
    <glyph glyph-name="colon" unicode=":" horiz-adv-x="260" 
d="M46 343v198h168v-198h-168zM46 0v198h168v-198h-168z" />
    <glyph glyph-name="semicolon" unicode=";" horiz-adv-x="260" 
d="M46 6v192h168v-180q0 -98 -40 -145.5t-128 -48.5v86q35 4 49.5 23.5t14.5 60.5v12h-64zM46 343v198h168v-198h-168z" />
    <glyph glyph-name="less" unicode="&#x3c;" horiz-adv-x="600" 
d="M47 190v126l506 208v-134l-338 -137l338 -137v-134z" />
    <glyph glyph-name="equal" unicode="=" horiz-adv-x="600" 
d="M47 295v140h506v-140h-506zM47 71v140h506v-140h-506z" />
    <glyph glyph-name="greater" unicode="&#x3e;" horiz-adv-x="600" 
d="M47 -18v134l338 137l-338 137v134l506 -208v-126z" />
    <glyph glyph-name="question" unicode="?" horiz-adv-x="500" 
d="M200 488h-168q0 129 57 186q54 54 167 54q106 0 159 -52.5t53 -145.5q0 -90 -47 -142l-73 -83q-23 -27 -23 -98h-162v28q0 58 9.5 93.5t33.5 63.5l59 67q29 32 29 88q0 65 -45 65q-26 0 -37.5 -24.5t-11.5 -99.5zM160 0v158h168v-158h-168z" />
    <glyph glyph-name="at" unicode="@" horiz-adv-x="800" 
d="M314 346q0 -33 20 -56t52 -23q45 0 73.5 30t28.5 72q0 35 -21.5 57t-57.5 22q-39 0 -67 -32t-28 -70zM529 534h92l-40 -211q-7 -35 -7 -46q0 -22 17 -22q31 0 59.5 40.5t28.5 116.5q0 105 -73 164.5t-191 59.5q-125 0 -200.5 -78t-75.5 -202q0 -129 81 -203.5t212 -74.5
q112 0 192 59h110q-109 -151 -334 -151q-154 0 -262.5 108.5t-108.5 262.5t108.5 262.5t262.5 108.5q153 0 262 -83.5t109 -217.5q0 -60 -24.5 -113t-63 -86t-82.5 -52t-85 -19q-23 0 -39 11.5t-19 32.5h-4q-37 -44 -106 -44q-64 0 -110 49t-46 124q0 91 57 159.5t146 68.5
q79 0 126 -61z" />
    <glyph glyph-name="A" unicode="A" horiz-adv-x="556" 
d="M-13 0l174 714h234l174 -714h-198l-19 125h-148l-19 -125h-198zM330 265l-51 303h-2l-51 -303h104z" />
    <glyph glyph-name="B" unicode="B" horiz-adv-x="574" 
d="M50 0v714h281q97 0 146 -47.5t49 -130.5q0 -61 -28 -105t-84 -55v-2q66 -6 99 -53.5t33 -109.5q0 -98 -52 -154.5t-163 -56.5h-281zM236 580v-146h45q27 0 43 21t16 51q0 31 -16 52.5t-43 21.5h-45zM236 308v-174h52q27 0 46.5 23.5t19.5 64.5q0 39 -19.5 62.5
t-46.5 23.5h-52z" />
    <glyph glyph-name="C" unicode="C" horiz-adv-x="537" 
d="M329 457v40q0 59 -11.5 82t-39.5 23q-41 0 -52 -47t-11 -198t11 -198t52 -47q34 0 45 36t11 139h180v-53q0 -248 -236 -248q-152 0 -203.5 81.5t-51.5 289.5q0 206 55.5 288.5t199.5 82.5q231 0 231 -226v-45h-180z" />
    <glyph glyph-name="D" unicode="D" horiz-adv-x="574" 
d="M230 580v-446h37q54 0 67.5 38.5t13.5 184.5t-13.5 184.5t-67.5 38.5h-37zM44 0v714h270q45 0 80 -10.5t58.5 -27t40.5 -45t26 -55t14 -67.5t6 -73t1 -79t-1 -79t-6 -73t-14 -67.5t-26 -55t-40.5 -45t-58.5 -27t-80 -10.5h-270z" />
    <glyph glyph-name="E" unicode="E" horiz-adv-x="500" 
d="M44 0v714h423v-152h-237v-122h222v-146h-222v-142h246v-152h-432z" />
    <glyph glyph-name="F" unicode="F" horiz-adv-x="481" 
d="M44 0v714h423v-152h-237v-122h222v-146h-222v-294h-186z" />
    <glyph glyph-name="G" unicode="G" horiz-adv-x="556" 
d="M284 262v126h240v-388h-126l-4 63h-2q-32 -77 -154 -77q-56 0 -94 17t-60 44.5t-34 78t-15 101t-3 130.5q0 96 11 160t39.5 114t81.5 73.5t134 23.5q105 0 165.5 -58t60.5 -182h-180q0 56 -10 83q-11 31 -43 31q-44 0 -55.5 -46.5t-11.5 -198.5q0 -151 11 -198t52 -47
q32 0 47 31t16 119h-66z" />
    <glyph glyph-name="H" unicode="H" horiz-adv-x="574" 
d="M44 0v714h186v-262h114v262h186v-714h-186v294h-114v-294h-186z" />
    <glyph glyph-name="I" unicode="I" horiz-adv-x="260" 
d="M37 0v714h186v-714h-186z" />
    <glyph glyph-name="J" unicode="J" horiz-adv-x="481" 
d="M265 714h186v-491q0 -126 -57.5 -181.5t-175.5 -55.5q-114 0 -165.5 58t-51.5 173v15h168v-35q0 -85 48 -85t48 85v517z" />
    <glyph glyph-name="K" unicode="K" horiz-adv-x="556" 
d="M37 0v714h186v-274h2l138 274h198l-180 -312l202 -402h-212l-109 249l-39 -60v-189h-186z" />
    <glyph glyph-name="L" unicode="L" horiz-adv-x="463" 
d="M44 0v714h186v-562h229v-152h-415z" />
    <glyph glyph-name="M" unicode="M" horiz-adv-x="758" 
d="M37 0v714h266l75 -423h2l75 423h266v-714h-174v532h-2l-99 -532h-134l-99 532h-2v-532h-174z" />
    <glyph glyph-name="N" unicode="N" horiz-adv-x="592" 
d="M44 0v714h208l120 -440h2v440h174v-714h-204l-124 441h-2v-441h-174z" />
    <glyph glyph-name="O" unicode="O" horiz-adv-x="556" 
d="M23 357q0 202 57 286.5t198 84.5t198 -84.5t57 -286.5t-57 -286.5t-198 -84.5t-198 84.5t-57 286.5zM215 357q0 -151 11 -198t52 -47t52 47t11 198t-11 198t-52 47t-52 -47t-11 -198z" />
    <glyph glyph-name="P" unicode="P" horiz-adv-x="537" 
d="M37 0v714h279q102 0 154 -60.5t52 -159.5q0 -109 -60 -165.5t-174 -56.5h-65v-272h-186zM223 580v-174h35q72 0 72 87t-72 87h-35z" />
    <glyph glyph-name="Q" unicode="Q" horiz-adv-x="556" 
d="M215 357q0 -151 11 -198t52 -47t52 47t11 198t-11 198t-52 47t-52 -47t-11 -198zM559 -22l-112 -97l-102 110q-5 0 -15.5 -1.5t-16.5 -2.5q-11 -1 -35 -1q-141 0 -198 84.5t-57 286.5t57 286.5t198 84.5t198 -84.5t57 -286.5q0 -208 -60 -290z" />
    <glyph glyph-name="R" unicode="R" horiz-adv-x="574" 
d="M44 0v714h291q101 0 148.5 -51t47.5 -139q0 -151 -122 -170v-2q65 -6 91 -45.5t26 -114.5v-61q0 -85 9 -99q10 -17 21 -22v-10h-198q-18 38 -18 136v48q0 60 -13.5 81t-47.5 21h-49v-286h-186zM230 580v-168h37q39 0 58.5 22.5t19.5 62.5q0 44 -18.5 63.5t-60.5 19.5h-36
z" />
    <glyph glyph-name="S" unicode="S" horiz-adv-x="537" 
d="M496 508h-174v17q0 33 -13.5 55t-39.5 22q-28 0 -43 -18.5t-15 -44.5q0 -38 31.5 -62.5t76 -41.5t89 -39t76 -70t31.5 -120q0 -220 -253 -220q-120 0 -180 47t-60 154v25h180v-17q0 -83 61 -83q28 0 44 19.5t16 49.5q0 28 -16 48.5t-42 33.5t-57 25t-62 28t-57 38.5
t-42 61t-16 89.5q0 109 58.5 166t175.5 57q121 0 176 -52.5t55 -167.5z" />
    <glyph glyph-name="T" unicode="T" horiz-adv-x="462" 
d="M138 0v556h-140v158h466v-158h-140v-556h-186z" />
    <glyph glyph-name="U" unicode="U" horiz-adv-x="556" 
d="M36 714h186v-515q0 -49 14 -68t42 -19t42 19t14 68v515h186v-468q0 -144 -59.5 -202t-182.5 -58t-182.5 58t-59.5 202v468z" />
    <glyph glyph-name="V" unicode="V" 
d="M140 0l-154 714h198l75 -538h2l75 538h198l-154 -714h-240z" />
    <glyph glyph-name="W" unicode="W" horiz-adv-x="778" 
d="M238 220l67 494h168l73 -494h2l50 494h180l-122 -714h-204l-62 480h-2l-62 -480h-204l-122 714h180l56 -494h2z" />
    <glyph glyph-name="X" unicode="X" horiz-adv-x="536" 
d="M157 362l-157 352h208l59 -207h2l59 207h208l-155 -352l167 -362h-208l-71 215h-2l-71 -215h-208z" />
    <glyph glyph-name="Y" unicode="Y" 
d="M167 0v281l-182 433h204l70 -249h2l70 249h204l-182 -433v-281h-186z" />
    <glyph glyph-name="Z" unicode="Z" horiz-adv-x="481" 
d="M20 0v134l224 428h-209v152h426v-134l-228 -428h228v-152h-441z" />
    <glyph glyph-name="bracketleft" unicode="[" horiz-adv-x="314" 
d="M44 -184v898h270v-126h-102v-646h102v-126h-270z" />
    <glyph glyph-name="backslash" unicode="\" horiz-adv-x="333" 
d="M205 -14l-227 742h150l227 -742h-150z" />
    <glyph glyph-name="bracketright" unicode="]" horiz-adv-x="314" 
d="M102 -58v646h-102v126h270v-898h-270v126h102z" />
    <glyph glyph-name="asciicircum" unicode="^" horiz-adv-x="600" 
d="M47 329l175 365h156l175 -365h-140l-113 239l-113 -239h-140z" />
    <glyph glyph-name="underscore" unicode="_" horiz-adv-x="500" 
d="M0 -125v50h500v-50h-500z" />
    <glyph glyph-name="grave" unicode="`" horiz-adv-x="260" 
d="M97 591l-96 146h168l44 -146h-116z" />
    <glyph glyph-name="a" unicode="a" horiz-adv-x="500" 
d="M473 0h-174q-5 15 -11 61h-2q-15 -35 -48 -55t-74 -20q-77 0 -113.5 42.5t-36.5 116.5q0 76 32.5 115t117.5 59l71 17q29 7 41 20.5t12 38.5q0 50 -46 50q-27 0 -38.5 -15.5t-12.5 -56.5h-156q0 44 14 78t35 53t50 31t54.5 16t53.5 4q104 0 159 -37.5t55 -136.5v-264
q0 -85 17 -117zM232 107q56 0 56 89v65h-2q-4 -6 -13.5 -9.5t-23.5 -7t-24 -8.5q-37 -17 -37 -70q0 -27 12 -43t32 -16z" />
    <glyph glyph-name="b" unicode="b" 
d="M39 0v714h180v-234h2q25 75 113 75q83 0 124.5 -61.5t41.5 -211.5q0 -154 -36.5 -225t-125.5 -71q-91 0 -123 88h-2v-74h-174zM219 270q0 -88 10 -119t40 -31q31 0 41 30.5t10 119.5t-10 120t-41 31q-30 0 -40 -31t-10 -120z" />
    <glyph glyph-name="c" unicode="c" horiz-adv-x="481" 
d="M467 329h-162q0 61 -12 87q-11 23 -40 23q-31 0 -42 -35t-11 -134t11 -133.5t42 -34.5q26 0 39 20t13 69v35h162q0 -130 -48 -183q-51 -57 -166 -57q-57 0 -95.5 10.5t-72 39t-49.5 84.5t-16 141q0 93 18 153.5t53.5 90t74.5 40t96 10.5q113 0 159 -58t46 -168z" />
    <glyph glyph-name="d" unicode="d" 
d="M301 480v234h180v-714h-174v74h-2q-32 -88 -123 -88q-89 0 -125.5 71t-36.5 225q0 146 43 209.5t123 63.5q88 0 113 -75h2zM200 270q0 -89 10 -119.5t41 -30.5q30 0 40 31t10 119q0 89 -10 120t-40 31q-31 0 -41 -31t-10 -120z" />
    <glyph glyph-name="e" unicode="e" horiz-adv-x="481" 
d="M467 240h-267v-71q0 -73 49 -73q26 0 38.5 20.5t12.5 73.5h162q-2 -100 -51 -151q-51 -53 -161 -53q-129 0 -179.5 64t-50.5 220q0 154 54 219.5t176 65.5q112 0 164.5 -58.5t52.5 -201.5v-55zM299 338v24q0 44 -11 63.5t-39 19.5q-27 0 -38 -19.5t-11 -63.5v-24h99z" />
    <glyph glyph-name="f" unicode="f" horiz-adv-x="315" 
d="M62 0v420h-62v121h62v39q0 82 37 115t130 33q44 0 86 -6v-113q-13 3 -30 3q-18 0 -30.5 -9.5t-12.5 -28.5v-33h73v-121h-73v-420h-180z" />
    <glyph glyph-name="g" unicode="g" 
d="M205 285q0 -81 12 -108.5t40 -27.5q27 0 38.5 27.5t11.5 108.5q0 80 -11.5 108t-38.5 28t-39.5 -28t-12.5 -108zM313 466v75h168v-532q0 -193 -226 -193q-63 0 -106 11.5t-73 46.5t-31 94h162q0 -42 45 -42q25 0 40 13t15 54v103h-2q-30 -81 -122 -81q-158 0 -158 267
q0 150 42 211.5t125 61.5q92 0 119 -89h2z" />
    <glyph glyph-name="h" unicode="h" 
d="M36 0v714h180v-233h2q39 74 125 74q62 0 101.5 -34t39.5 -113v-408h-180v357q0 34 -10 49t-34 15t-34 -15t-10 -49v-357h-180z" />
    <glyph glyph-name="i" unicode="i" horiz-adv-x="258" 
d="M39 0v541h180v-541h-180zM39 580v134h180v-134h-180z" />
    <glyph glyph-name="j" unicode="j" horiz-adv-x="258" 
d="M39 -12v553h180v-576q0 -86 -42 -113.5t-125 -27.5q-38 0 -81 5v121q36 0 52 7.5t16 30.5zM39 580v134h180v-134h-180z" />
    <glyph glyph-name="k" unicode="k" horiz-adv-x="500" 
d="M31 0v714h180v-360h2l100 187h192l-150 -223l169 -318h-192l-91 186l-30 -47v-139h-180z" />
    <glyph glyph-name="l" unicode="l" horiz-adv-x="258" 
d="M39 0v714h180v-714h-180z" />
    <glyph glyph-name="m" unicode="m" horiz-adv-x="778" 
d="M299 0v357q0 34 -10 49t-34 15t-34 -15t-10 -49v-357h-180v541h174v-66h2q35 80 131 80q54 0 84.5 -20t47.5 -63q38 83 136 83q66 0 103.5 -33t37.5 -114v-408h-180v357q0 34 -10 49t-34 15t-34 -15t-10 -49v-357h-180z" />
    <glyph glyph-name="n" unicode="n" 
d="M36 0v541h174v-66h2q35 80 131 80q66 0 103.5 -33t37.5 -114v-408h-180v357q0 34 -10 49t-34 15t-34 -15t-10 -49v-357h-180z" />
    <glyph glyph-name="o" unicode="o" horiz-adv-x="500" 
d="M480 270q0 -48 -4 -84.5t-18.5 -76t-38.5 -65t-67 -42t-102 -16.5q-61 0 -104.5 15.5t-67.5 39t-37.5 63.5t-17 76.5t-3.5 90.5q0 48 4 84.5t18.5 76t38.5 65t67 42t102 16.5q61 0 104.5 -15.5t67.5 -39t37.5 -63.5t17 -76.5t3.5 -90.5zM200 270q0 -102 10 -135t40 -33
q31 0 40.5 33t9.5 135q0 103 -9.5 136t-40.5 33q-30 0 -40 -33.5t-10 -135.5z" />
    <glyph glyph-name="p" unicode="p" 
d="M39 -176v717h174v-74h2q32 88 123 88q89 0 125.5 -71t36.5 -225q0 -148 -43 -210.5t-123 -62.5q-88 0 -113 75h-2v-237h-180zM219 271q0 -89 10 -120t40 -31q31 0 41 31t10 120t-10 119.5t-41 30.5q-30 0 -40 -31t-10 -119z" />
    <glyph glyph-name="q" unicode="q" 
d="M301 -176v237h-2q-25 -75 -113 -75q-83 0 -124.5 61.5t-41.5 211.5q0 154 36.5 225t125.5 71q91 0 123 -88h2v74h174v-717h-180zM301 271q0 88 -10 119t-40 31q-31 0 -41 -30.5t-10 -119.5t10 -120t41 -31q30 0 40 31t10 120z" />
    <glyph glyph-name="r" unicode="r" horiz-adv-x="352" 
d="M31 0v541h174v-86h2q15 48 47.5 74t73.5 26h29v-168q-21 4 -45 4q-50 0 -75.5 -22.5t-25.5 -73.5v-295h-180z" />
    <glyph glyph-name="s" unicode="s" horiz-adv-x="463" 
d="M17 168h158q0 -36 13 -53q14 -19 38 -19q22 0 37 12.5t15 33.5q0 26 -27 42t-65 27t-76.5 27.5t-65.5 53.5t-27 94q0 75 55 122t160 47q203 0 203 -170h-156q0 60 -48 60q-21 0 -33.5 -11.5t-12.5 -30.5q0 -24 27 -38t65.5 -24.5t76.5 -26t65 -52.5t27 -95
q0 -80 -58.5 -130.5t-158.5 -50.5q-111 0 -161.5 45.5t-50.5 136.5z" />
    <glyph glyph-name="t" unicode="t" horiz-adv-x="315" 
d="M2 420v121h60v159h180v-159h71v-121h-71v-258q0 -42 43 -42h28v-120q-49 -6 -98 -6q-88 0 -120.5 26t-32.5 112v288h-60z" />
    <glyph glyph-name="u" unicode="u" 
d="M36 133v408h180v-357q0 -34 10 -49t34 -15t34 15t10 49v357h180v-541h-174v66h-2q-35 -80 -131 -80q-66 0 -103.5 33t-37.5 114z" />
    <glyph glyph-name="v" unicode="v" horiz-adv-x="463" 
d="M125 0l-131 541h186l51 -389h2l50 389h186l-132 -541h-212z" />
    <glyph glyph-name="w" unicode="w" horiz-adv-x="740" 
d="M110 0l-110 541h174l45 -389h2l53 389h192l53 -389h2l45 389h174l-110 -541h-204l-55 383h-2l-55 -383h-204z" />
    <glyph glyph-name="x" unicode="x" horiz-adv-x="481" 
d="M139 279l-137 262h180l54 -145l62 145h180l-136 -262l143 -279h-180l-63 163l-66 -163h-180z" />
    <glyph glyph-name="y" unicode="y" horiz-adv-x="463" 
d="M50 -172v126q17 -4 40 -4q30 0 45 14.5t15 26.5t-8 40l-143 510h186l55 -365h2l52 365h180l-145 -559q-23 -91 -63 -124.5t-115 -33.5q-61 0 -101 4z" />
    <glyph glyph-name="z" unicode="z" horiz-adv-x="444" 
d="M23 401v140h402v-134l-202 -267h207v-140h-416v140l194 261h-185z" />
    <glyph glyph-name="braceleft" unicode="{" horiz-adv-x="333" 
d="M63 -47v178q0 67 -68 67v134q68 0 68 58v187q0 137 150 137h120v-126h-56q-46 0 -46 -62v-168q0 -34 -21 -56t-42.5 -28.5t-44.5 -7.5v-2q20 -2 33 -5t33 -12t31 -30.5t11 -53.5v-159q0 -62 46 -62h56v-126h-120q-150 0 -150 137z" />
    <glyph glyph-name="bar" unicode="|" horiz-adv-x="222" 
d="M41 -14v742h140v-742h-140z" />
    <glyph glyph-name="braceright" unicode="}" horiz-adv-x="333" 
d="M0 -184v126h56q46 0 46 62v168q0 34 21 56t42.5 28.5t44.5 7.5v2q-20 2 -33 5t-33 12t-31 30.5t-11 53.5v159q0 62 -46 62h-56v126h120q150 0 150 -137v-178q0 -67 68 -67v-134q-68 0 -68 -58v-187q0 -137 -150 -137h-120z" />
    <glyph glyph-name="asciitilde" unicode="~" horiz-adv-x="600" 
d="M105 146l-36 125q40 86 125 86q40 0 114.5 -34t98.5 -34q43 0 88 71l36 -125q-56 -86 -125 -86q-38 0 -103.5 34t-113.5 34q-55 0 -84 -71z" />
    <glyph glyph-name="uni00A0" unicode="&#xa0;" horiz-adv-x="260" 
 />
    <glyph glyph-name="exclamdown" unicode="&#xa1;" horiz-adv-x="314" 
d="M72 386v158h168v-158h-168zM70 -170v239l19 268h134l21 -268v-239h-174z" />
    <glyph glyph-name="cent" unicode="&#xa2;" 
d="M229 -102v88q-102 9 -147 73q-45 65 -45 199q0 153 47.5 219t144.5 78v76h80v-76q101 -9 137.5 -66t36.5 -160h-162q0 61 -12 87q-11 23 -40 23q-30 0 -41 -35t-11 -134t11 -133.5t41 -34.5q26 0 39 20t13 69v35h162q0 -130 -48 -183q-41 -45 -126 -57v-88h-80z" />
    <glyph glyph-name="sterling" unicode="&#xa3;" 
d="M12 294v104h68q-43 64 -43 126q0 89 60.5 136.5t160.5 47.5q125 0 178.5 -51t55.5 -153h-162v16q0 37 -16 54.5t-41 17.5q-26 0 -41 -17t-15 -41q0 -45 49 -136h171v-104h-138q5 -20 5 -30q0 -31 -25 -68t-68 -69l2 -2q19 7 33 7q19 0 54.5 -12.5t53.5 -12.5q30 0 104 39
l50 -112q-67 -48 -161 -48q-31 0 -93 18t-93 18q-48 0 -108 -30l-41 105q49 32 80.5 76.5t31.5 91.5q0 9 -5 29h-107z" />
    <glyph glyph-name="currency" unicode="&#xa4;" 
d="M81 97l-72 77l52 51q-36 56 -36 122q0 65 38 126l-54 53l72 71l55 -51q56 36 124 36t124 -36l55 51l72 -71l-54 -53q38 -61 38 -126q0 -66 -36 -122l52 -51l-72 -77l-52 54q-56 -39 -127 -39t-127 39zM159 347q0 -53 26 -81t75 -28t75 28t26 81t-26 81t-75 28t-75 -28
t-26 -81z" />
    <glyph glyph-name="yen" unicode="&#xa5;" 
d="M170 0v123h-125v104h125v46l-6 17h-119v104h75l-125 300h192l72 -260h2l72 260h192l-125 -300h75v-104h-119l-6 -17v-46h125v-104h-125v-123h-180z" />
    <glyph glyph-name="brokenbar" unicode="&#xa6;" horiz-adv-x="222" 
d="M41 -14v290h140v-290h-140zM41 438v290h140v-290h-140z" />
    <glyph glyph-name="section" unicode="&#xa7;" 
d="M473 552h-156q0 60 -53 60q-20 0 -33.5 -11.5t-13.5 -29.5q0 -25 29 -41.5t70.5 -30t83.5 -32.5t71 -60.5t29 -102.5q0 -88 -72 -144q55 -42 55 -135q0 -92 -62 -135.5t-165 -43.5q-218 0 -219 182v16h168q0 -82 50 -82q24 0 36 16t12 40q0 27 -21 46.5t-52.5 29.5
t-68 25t-68 33t-52.5 55t-21 88q0 43 23.5 84t59.5 60q-29 19 -44.5 51t-15.5 65q0 81 55 127t163 46q212 0 212 -157v-19zM199 270l118 -54q43 31 43 67q0 26 -27 43.5t-69.5 32t-57.5 25.5q-46 -39 -46 -68q0 -28 39 -46z" />
    <glyph glyph-name="dieresis" unicode="&#xa8;" horiz-adv-x="260" 
d="M-28 588v140h134v-140h-134zM154 588v140h134v-140h-134z" />
    <glyph glyph-name="copyright" unicode="&#xa9;" horiz-adv-x="800" 
d="M481 299h110q-11 -73 -60 -113.5t-115 -40.5q-90 0 -146.5 59t-56.5 148q0 92 54.5 154t142.5 62q69 0 116 -39t59 -111h-104q-14 58 -71 58q-44 0 -68.5 -31.5t-24.5 -86.5t26 -88t70 -33q28 0 46 15.5t22 46.5zM29 357q0 154 108.5 262.5t262.5 108.5t262.5 -108.5
t108.5 -262.5t-108.5 -262.5t-262.5 -108.5t-262.5 108.5t-108.5 262.5zM157 357q0 -126 64 -193.5t179 -67.5t179 67.5t64 193.5t-64 193.5t-179 67.5t-179 -67.5t-64 -193.5z" />
    <glyph glyph-name="ordfeminine" unicode="&#xaa;" horiz-adv-x="352" 
d="M140 604h-116q0 65 39.5 87.5t109.5 22.5q92 0 125 -23t33 -81v-159q0 -49 11 -71h-131q-4 9 -8 38h-2q-9 -22 -30 -33q-21 -12 -48 -12q-113 0 -113 95q0 45 23.5 66.5t89.5 37.5l46 11q34 8 34 35q0 22 -30 22q-17 0 -24.5 -8t-8.5 -28zM203 507v32h-2q-3 -4 -8.5 -6.5
t-15 -4.5t-15.5 -5q-24 -11 -24 -42q0 -11 8 -19.5t21 -8.5q36 0 36 54z" />
    <glyph glyph-name="guillemotleft" unicode="&#xab;" horiz-adv-x="444" 
d="M239 179v220l156 104v-158l-84 -56l84 -56v-158zM49 179v220l156 104v-158l-84 -56l84 -56v-158z" />
    <glyph glyph-name="logicalnot" unicode="&#xac;" horiz-adv-x="600" 
d="M413 109v186h-366v140h506v-326h-140z" />
    <glyph glyph-name="uni00AD" unicode="&#xad;" horiz-adv-x="368" 
d="M28 213v152h312v-152h-312z" />
    <glyph glyph-name="registered" unicode="&#xae;" horiz-adv-x="800" 
d="M29 357q0 154 108.5 262.5t262.5 108.5t262.5 -108.5t108.5 -262.5t-108.5 -262.5t-262.5 -108.5t-262.5 108.5t-108.5 262.5zM157 357q0 -126 64 -193.5t179 -67.5t179 67.5t64 193.5t-64 193.5t-179 67.5t-179 -67.5t-64 -193.5zM259 181v378h125q85 0 128 -27.5
t43 -95.5q0 -49 -23 -73.5t-52 -28.5l85 -153h-102l-80 143h-32v-143h-92zM351 398h49q57 0 57 45q0 42 -57 42h-49v-87z" />
    <glyph glyph-name="macron" unicode="&#xaf;" horiz-adv-x="260" 
d="M-28 616v98h316v-98h-316z" />
    <glyph glyph-name="degree" unicode="&#xb0;" horiz-adv-x="400" 
d="M40 548q0 66 47 113t113 47t113 -47t47 -113t-47 -113t-113 -47t-113 47t-47 113zM132 548q0 -28 20 -48t48 -20t48 20t20 48t-20 48t-48 20t-48 -20t-20 -48z" />
    <glyph glyph-name="plusminus" unicode="&#xb1;" horiz-adv-x="600" 
d="M230 418v88h140v-88h183v-140h-183v-88h-140v88h-183v140h183zM47 0v140h506v-140h-506z" />
    <glyph glyph-name="twosuperior" unicode="&#xb2;" horiz-adv-x="370" 
d="M147 556h-128q0 80 28 112q34 40 136 40q97 0 132.5 -30.5t35.5 -86.5q0 -65 -58 -118l-71 -65q-25 -23 -30 -36h159v-92h-322q0 99 69 164l80 76q33 30 33 70q0 38 -32 38t-32 -58v-14z" />
    <glyph glyph-name="threesuperior" unicode="&#xb3;" horiz-adv-x="370" 
d="M146 582h-122q0 64 38 96q36 30 120 30q93 0 127 -28.5t34 -89.5q0 -71 -64 -86v-2q75 -11 75 -92q0 -71 -40.5 -104t-128.5 -33q-91 0 -129.5 29.5t-39.5 104.5h128q0 -20 10 -38q9 -16 27 -16q20 0 26.5 11t6.5 44q0 31 -10 42t-34 11h-31v74h18q28 0 40 12t12 45
q0 36 -30 36q-33 0 -33 -46z" />
    <glyph glyph-name="acute" unicode="&#xb4;" horiz-adv-x="260" 
d="M57 591l44 146h168l-96 -146h-116z" />
    <glyph glyph-name="mu" unicode="&#xb5;" 
d="M36 -176v717h180v-357q0 -34 10 -49t34 -15t34 15t10 49v357h180v-541h-174v66h-2q-34 -80 -77 -80q-9 0 -15 3v-165h-180z" />
    <glyph glyph-name="paragraph" unicode="&#xb6;" horiz-adv-x="666" 
d="M206 -140v470q-69 0 -121 50.5t-52 138.5q0 47 13.5 82t36 56.5t56.5 34.5t69.5 17.5t80.5 4.5h292v-854h-140v744h-95v-744h-140z" />
    <glyph glyph-name="periodcentered" unicode="&#xb7;" horiz-adv-x="260" 
d="M31 274q0 41 29 70t70 29t70 -29t29 -70t-29 -70t-70 -29t-70 29t-29 70z" />
    <glyph glyph-name="cedilla" unicode="&#xb8;" horiz-adv-x="260" 
d="M112 6h60l-33 -63q13 5 29 5q39 0 65.5 -20.5t26.5 -58.5q0 -48 -35 -73.5t-95 -25.5q-62 0 -114 20l22 56q35 -16 68 -16q23 0 36.5 9.5t13.5 24.5q0 32 -41 32q-13 0 -29 -7l-25 21z" />
    <glyph glyph-name="onesuperior" unicode="&#xb9;" horiz-adv-x="333" 
d="M109 280v282h-87v80q57 1 83.5 14.5t39.5 51.5h104v-428h-140z" />
    <glyph glyph-name="ordmasculine" unicode="&#xba;" horiz-adv-x="352" 
d="M10 543q0 95 35 133t131 38t131 -38t35 -133t-35 -132.5t-131 -37.5t-131 37.5t-35 132.5zM144 543q0 -53 6.5 -71.5t25.5 -18.5t25.5 18t6.5 72t-6.5 72.5t-25.5 18.5t-25.5 -18.5t-6.5 -72.5z" />
    <glyph glyph-name="guillemotright" unicode="&#xbb;" horiz-adv-x="444" 
d="M49 75v158l84 56l-84 56v158l156 -104v-220zM239 75v158l84 56l-84 56v158l156 -104v-220z" />
    <glyph glyph-name="onequarter" unicode="&#xbc;" horiz-adv-x="814" 
d="M560 164h77v131h-2zM456 72v92l146 257h157v-257h40v-92h-40v-72h-122v72h-181zM146 -31l387 756h110l-387 -756h-110zM97 280v282h-87v80q57 1 83.5 14.5t39.5 51.5h104v-428h-140z" />
    <glyph glyph-name="onehalf" unicode="&#xbd;" horiz-adv-x="814" 
d="M112 -31l387 756h110l-387 -756h-110zM97 280v282h-87v80q57 1 83.5 14.5t39.5 51.5h104v-428h-140zM599 276h-128q0 80 28 112q34 40 136 40q97 0 132.5 -30.5t35.5 -86.5q0 -65 -58 -118l-71 -65q-25 -23 -30 -36h159v-92h-322q0 99 69 164l80 76q33 30 33 70
q0 38 -32 38t-32 -58v-14z" />
    <glyph glyph-name="threequarters" unicode="&#xbe;" horiz-adv-x="814" 
d="M548 164h77v131h-2zM456 72v92l146 257h157v-257h40v-92h-40v-72h-122v72h-181zM183 -31l387 756h110l-387 -756h-110zM145 582h-122q0 64 38 96q36 30 120 30q93 0 127 -28.5t34 -89.5q0 -71 -64 -86v-2q75 -11 75 -92q0 -71 -40.5 -104t-128.5 -33q-91 0 -129.5 29.5
t-39.5 104.5h128q0 -20 10 -38q9 -16 27 -16q20 0 26.5 11t6.5 44q0 31 -10 42t-34 11h-31v74h18q28 0 40 12t12 45q0 36 -30 36q-33 0 -33 -46z" />
    <glyph glyph-name="questiondown" unicode="&#xbf;" horiz-adv-x="500" 
d="M300 56h168q0 -129 -57 -186q-54 -54 -167 -54q-106 0 -159 52.5t-53 145.5q0 90 47 142l73 83q23 27 23 98h162v-28q0 -58 -9.5 -93.5t-33.5 -63.5l-59 -67q-29 -32 -29 -88q0 -65 45 -65q26 0 37.5 24.5t11.5 99.5zM172 386v158h168v-158h-168z" />
    <glyph glyph-name="Agrave" unicode="&#xc0;" horiz-adv-x="556" 
d="M-13 0l174 714h234l174 -714h-198l-19 125h-148l-19 -125h-198zM330 265l-51 303h-2l-51 -303h104zM239 764l-96 146h168l44 -146h-116z" />
    <glyph glyph-name="Aacute" unicode="&#xc1;" horiz-adv-x="556" 
d="M-13 0l174 714h234l174 -714h-198l-19 125h-148l-19 -125h-198zM330 265l-51 303h-2l-51 -303h104zM199 764l44 146h168l-96 -146h-116z" />
    <glyph glyph-name="Acircumflex" unicode="&#xc2;" horiz-adv-x="556" 
d="M-13 0l174 714h234l174 -714h-198l-19 125h-148l-19 -125h-198zM330 265l-51 303h-2l-51 -303h104zM114 764l62 146h192l62 -146h-122l-36 80l-36 -80h-122z" />
    <glyph glyph-name="Atilde" unicode="&#xc3;" horiz-adv-x="556" 
d="M-13 0l174 714h234l174 -714h-198l-19 125h-148l-19 -125h-198zM330 265l-51 303h-2l-51 -303h104zM351 910h86q-7 -71 -34.5 -105.5t-65.5 -34.5q-30 0 -70 15t-51 15q-10 0 -16.5 -8.5t-6.5 -21.5h-86q18 140 98 140q26 0 65 -15q45 -15 54 -15q23 0 27 30z" />
    <glyph glyph-name="Adieresis" unicode="&#xc4;" horiz-adv-x="556" 
d="M-13 0l174 714h234l174 -714h-198l-19 125h-148l-19 -125h-198zM330 265l-51 303h-2l-51 -303h104zM114 761v140h134v-140h-134zM296 761v140h134v-140h-134z" />
    <glyph glyph-name="Aring" unicode="&#xc5;" horiz-adv-x="556" 
d="M-13 0l174 714h234l174 -714h-198l-19 125h-148l-19 -125h-198zM330 265l-51 303h-2l-51 -303h104zM167 861q0 46 32.5 78.5t78.5 32.5t78.5 -32.5t32.5 -78.5t-32.5 -78.5t-78.5 -32.5t-78.5 32.5t-32.5 78.5zM233 861q0 -19 13 -32t32 -13t32 13t13 32t-13 32t-32 13
t-32 -13t-13 -32z" />
    <glyph glyph-name="AE" unicode="&#xc6;" horiz-adv-x="778" 
d="M264 265h101v323h-2zM-13 0l270 714h494v-152h-212v-122h196v-146h-196v-142h223v-152h-397v119h-144l-36 -119h-198z" />
    <glyph glyph-name="Ccedilla" unicode="&#xc7;" horiz-adv-x="537" 
d="M200 -90l41 78q-129 9 -173.5 91.5t-44.5 277.5q0 206 55.5 288.5t199.5 82.5q231 0 231 -226v-45h-180v40q0 59 -11.5 82t-39.5 23q-41 0 -52 -47t-11 -198t11 -198t52 -47q34 0 45 36t11 139h180v-53q0 -234 -213 -248l-23 -43q13 5 29 5q39 0 65.5 -20.5t26.5 -58.5
q0 -48 -35 -73.5t-95 -25.5q-62 0 -114 20l22 56q35 -16 68 -16q23 0 36.5 9.5t13.5 24.5q0 32 -41 32q-13 0 -29 -7z" />
    <glyph glyph-name="Egrave" unicode="&#xc8;" horiz-adv-x="500" 
d="M44 0v714h423v-152h-237v-122h222v-146h-222v-142h246v-152h-432zM217 764l-96 146h168l44 -146h-116z" />
    <glyph glyph-name="Eacute" unicode="&#xc9;" horiz-adv-x="500" 
d="M44 0v714h423v-152h-237v-122h222v-146h-222v-142h246v-152h-432zM177 764l44 146h168l-96 -146h-116z" />
    <glyph glyph-name="Ecircumflex" unicode="&#xca;" horiz-adv-x="500" 
d="M44 0v714h423v-152h-237v-122h222v-146h-222v-142h246v-152h-432zM92 764l62 146h192l62 -146h-122l-36 80l-36 -80h-122z" />
    <glyph glyph-name="Edieresis" unicode="&#xcb;" horiz-adv-x="500" 
d="M44 0v714h423v-152h-237v-122h222v-146h-222v-142h246v-152h-432zM92 761v140h134v-140h-134zM274 761v140h134v-140h-134z" />
    <glyph glyph-name="Igrave" unicode="&#xcc;" horiz-adv-x="260" 
d="M37 0v714h186v-714h-186zM91 764l-96 146h168l44 -146h-116z" />
    <glyph glyph-name="Iacute" unicode="&#xcd;" horiz-adv-x="260" 
d="M37 0v714h186v-714h-186zM51 764l44 146h168l-96 -146h-116z" />
    <glyph glyph-name="Icircumflex" unicode="&#xce;" horiz-adv-x="260" 
d="M37 0v714h186v-714h-186zM-34 764l62 146h192l62 -146h-122l-36 80l-36 -80h-122z" />
    <glyph glyph-name="Idieresis" unicode="&#xcf;" horiz-adv-x="260" 
d="M37 0v714h186v-714h-186zM-34 761v140h134v-140h-134zM148 761v140h134v-140h-134z" />
    <glyph glyph-name="Eth" unicode="&#xd0;" horiz-adv-x="574" 
d="M44 0v308h-53v126h53v280h270q45 0 80 -10.5t58.5 -27t40.5 -45t26 -55t14 -67.5t6 -73t1 -79t-1 -79t-6 -73t-14 -67.5t-26 -55t-40.5 -45t-58.5 -27t-80 -10.5h-270zM230 434h52v-126h-52v-174h37q54 0 67.5 38.5t13.5 184.5t-13.5 184.5t-67.5 38.5h-37v-146z" />
    <glyph glyph-name="Ntilde" unicode="&#xd1;" horiz-adv-x="592" 
d="M44 0v714h208l120 -440h2v440h174v-714h-204l-124 441h-2v-441h-174zM375 910h86q-7 -71 -34.5 -105.5t-65.5 -34.5q-30 0 -70 15t-51 15q-10 0 -16.5 -8.5t-6.5 -21.5h-86q18 140 98 140q26 0 65 -15q45 -15 54 -15q23 0 27 30z" />
    <glyph glyph-name="Ograve" unicode="&#xd2;" horiz-adv-x="556" 
d="M23 357q0 202 57 286.5t198 84.5t198 -84.5t57 -286.5t-57 -286.5t-198 -84.5t-198 84.5t-57 286.5zM215 357q0 -151 11 -198t52 -47t52 47t11 198t-11 198t-52 47t-52 -47t-11 -198zM245 764l-96 146h168l44 -146h-116z" />
    <glyph glyph-name="Oacute" unicode="&#xd3;" horiz-adv-x="556" 
d="M23 357q0 202 57 286.5t198 84.5t198 -84.5t57 -286.5t-57 -286.5t-198 -84.5t-198 84.5t-57 286.5zM215 357q0 -151 11 -198t52 -47t52 47t11 198t-11 198t-52 47t-52 -47t-11 -198zM205 764l44 146h168l-96 -146h-116z" />
    <glyph glyph-name="Ocircumflex" unicode="&#xd4;" horiz-adv-x="556" 
d="M23 357q0 202 57 286.5t198 84.5t198 -84.5t57 -286.5t-57 -286.5t-198 -84.5t-198 84.5t-57 286.5zM215 357q0 -151 11 -198t52 -47t52 47t11 198t-11 198t-52 47t-52 -47t-11 -198zM120 764l62 146h192l62 -146h-122l-36 80l-36 -80h-122z" />
    <glyph glyph-name="Otilde" unicode="&#xd5;" horiz-adv-x="556" 
d="M23 357q0 202 57 286.5t198 84.5t198 -84.5t57 -286.5t-57 -286.5t-198 -84.5t-198 84.5t-57 286.5zM215 357q0 -151 11 -198t52 -47t52 47t11 198t-11 198t-52 47t-52 -47t-11 -198zM357 910h86q-7 -71 -34.5 -105.5t-65.5 -34.5q-30 0 -70 15t-51 15q-10 0 -16.5 -8.5
t-6.5 -21.5h-86q18 140 98 140q26 0 65 -15q45 -15 54 -15q23 0 27 30z" />
    <glyph glyph-name="Odieresis" unicode="&#xd6;" horiz-adv-x="556" 
d="M23 357q0 202 57 286.5t198 84.5t198 -84.5t57 -286.5t-57 -286.5t-198 -84.5t-198 84.5t-57 286.5zM215 357q0 -151 11 -198t52 -47t52 47t11 198t-11 198t-52 47t-52 -47t-11 -198zM120 761v140h134v-140h-134zM302 761v140h134v-140h-134z" />
    <glyph glyph-name="multiply" unicode="&#xd7;" horiz-adv-x="600" 
d="M201 253l-143 143l99 99l143 -143l143 143l99 -99l-143 -143l143 -143l-99 -99l-143 143l-143 -143l-99 99z" />
    <glyph glyph-name="Oslash" unicode="&#xd8;" horiz-adv-x="556" 
d="M217 293l108 276q-12 33 -47 33q-41 0 -52 -47t-11 -198v-64h2zM339 421l-108 -275q12 -34 47 -34q41 0 52 47t11 198v64h-2zM87 -33l27 68q-49 39 -70 117t-21 205q0 202 57 286.5t198 84.5q59 0 104 -14l23 58l64 -25l-26 -66q48 -40 69 -118t21 -206
q0 -202 -57 -286.5t-198 -84.5q-59 0 -104 14l-23 -58z" />
    <glyph glyph-name="Ugrave" unicode="&#xd9;" horiz-adv-x="556" 
d="M36 714h186v-515q0 -49 14 -68t42 -19t42 19t14 68v515h186v-468q0 -144 -59.5 -202t-182.5 -58t-182.5 58t-59.5 202v468zM239 764l-96 146h168l44 -146h-116z" />
    <glyph glyph-name="Uacute" unicode="&#xda;" horiz-adv-x="556" 
d="M36 714h186v-515q0 -49 14 -68t42 -19t42 19t14 68v515h186v-468q0 -144 -59.5 -202t-182.5 -58t-182.5 58t-59.5 202v468zM199 764l44 146h168l-96 -146h-116z" />
    <glyph glyph-name="Ucircumflex" unicode="&#xdb;" horiz-adv-x="556" 
d="M36 714h186v-515q0 -49 14 -68t42 -19t42 19t14 68v515h186v-468q0 -144 -59.5 -202t-182.5 -58t-182.5 58t-59.5 202v468zM114 764l62 146h192l62 -146h-122l-36 80l-36 -80h-122z" />
    <glyph glyph-name="Udieresis" unicode="&#xdc;" horiz-adv-x="556" 
d="M36 714h186v-515q0 -49 14 -68t42 -19t42 19t14 68v515h186v-468q0 -144 -59.5 -202t-182.5 -58t-182.5 58t-59.5 202v468zM114 761v140h134v-140h-134zM296 761v140h134v-140h-134z" />
    <glyph glyph-name="Yacute" unicode="&#xdd;" 
d="M167 0v281l-182 433h204l70 -249h2l70 249h204l-182 -433v-281h-186zM187 764l44 146h168l-96 -146h-116z" />
    <glyph glyph-name="Thorn" unicode="&#xde;" horiz-adv-x="537" 
d="M37 0v714h186v-120h93q102 0 154 -60.5t52 -159.5q0 -109 -60 -165.5t-174 -56.5h-65v-152h-186zM223 460v-174h35q72 0 72 87t-72 87h-35z" />
    <glyph glyph-name="germandbls" unicode="&#xdf;" 
d="M205 0h-174v510q0 119 58 168.5t179 49.5q218 0 218 -188q0 -52 -23.5 -91.5t-68.5 -44.5v-2q106 -17 106 -181q0 -123 -42 -175t-144 -52q-43 0 -72 6v121q16 -6 25 -6q30 0 41.5 24.5t11.5 97.5q0 52 -13.5 74.5t-42.5 22.5h-20v121h15q47 0 47 72q0 80 -52 80
q-49 0 -49 -74v-533z" />
    <glyph glyph-name="agrave" unicode="&#xe0;" horiz-adv-x="500" 
d="M473 0h-174q-5 15 -11 61h-2q-15 -35 -48 -55t-74 -20q-77 0 -113.5 42.5t-36.5 116.5q0 76 32.5 115t117.5 59l71 17q29 7 41 20.5t12 38.5q0 50 -46 50q-27 0 -38.5 -15.5t-12.5 -56.5h-156q0 44 14 78t35 53t50 31t54.5 16t53.5 4q104 0 159 -37.5t55 -136.5v-264
q0 -85 17 -117zM232 107q56 0 56 89v65h-2q-4 -6 -13.5 -9.5t-23.5 -7t-24 -8.5q-37 -17 -37 -70q0 -27 12 -43t32 -16zM217 591l-96 146h168l44 -146h-116z" />
    <glyph glyph-name="aacute" unicode="&#xe1;" horiz-adv-x="500" 
d="M473 0h-174q-5 15 -11 61h-2q-15 -35 -48 -55t-74 -20q-77 0 -113.5 42.5t-36.5 116.5q0 76 32.5 115t117.5 59l71 17q29 7 41 20.5t12 38.5q0 50 -46 50q-27 0 -38.5 -15.5t-12.5 -56.5h-156q0 44 14 78t35 53t50 31t54.5 16t53.5 4q104 0 159 -37.5t55 -136.5v-264
q0 -85 17 -117zM232 107q56 0 56 89v65h-2q-4 -6 -13.5 -9.5t-23.5 -7t-24 -8.5q-37 -17 -37 -70q0 -27 12 -43t32 -16zM177 591l44 146h168l-96 -146h-116z" />
    <glyph glyph-name="acircumflex" unicode="&#xe2;" horiz-adv-x="500" 
d="M473 0h-174q-5 15 -11 61h-2q-15 -35 -48 -55t-74 -20q-77 0 -113.5 42.5t-36.5 116.5q0 76 32.5 115t117.5 59l71 17q29 7 41 20.5t12 38.5q0 50 -46 50q-27 0 -38.5 -15.5t-12.5 -56.5h-156q0 44 14 78t35 53t50 31t54.5 16t53.5 4q104 0 159 -37.5t55 -136.5v-264
q0 -85 17 -117zM232 107q56 0 56 89v65h-2q-4 -6 -13.5 -9.5t-23.5 -7t-24 -8.5q-37 -17 -37 -70q0 -27 12 -43t32 -16zM92 591l62 146h192l62 -146h-122l-36 80l-36 -80h-122z" />
    <glyph glyph-name="atilde" unicode="&#xe3;" horiz-adv-x="500" 
d="M473 0h-174q-5 15 -11 61h-2q-15 -35 -48 -55t-74 -20q-77 0 -113.5 42.5t-36.5 116.5q0 76 32.5 115t117.5 59l71 17q29 7 41 20.5t12 38.5q0 50 -46 50q-27 0 -38.5 -15.5t-12.5 -56.5h-156q0 44 14 78t35 53t50 31t54.5 16t53.5 4q104 0 159 -37.5t55 -136.5v-264
q0 -85 17 -117zM232 107q56 0 56 89v65h-2q-4 -6 -13.5 -9.5t-23.5 -7t-24 -8.5q-37 -17 -37 -70q0 -27 12 -43t32 -16zM329 737h86q-7 -71 -34.5 -105.5t-65.5 -34.5q-30 0 -70 15t-51 15q-10 0 -16.5 -8.5t-6.5 -21.5h-86q18 140 98 140q26 0 65 -15q45 -15 54 -15
q23 0 27 30z" />
    <glyph glyph-name="adieresis" unicode="&#xe4;" horiz-adv-x="500" 
d="M473 0h-174q-5 15 -11 61h-2q-15 -35 -48 -55t-74 -20q-77 0 -113.5 42.5t-36.5 116.5q0 76 32.5 115t117.5 59l71 17q29 7 41 20.5t12 38.5q0 50 -46 50q-27 0 -38.5 -15.5t-12.5 -56.5h-156q0 44 14 78t35 53t50 31t54.5 16t53.5 4q104 0 159 -37.5t55 -136.5v-264
q0 -85 17 -117zM232 107q56 0 56 89v65h-2q-4 -6 -13.5 -9.5t-23.5 -7t-24 -8.5q-37 -17 -37 -70q0 -27 12 -43t32 -16zM92 588v140h134v-140h-134zM274 588v140h134v-140h-134z" />
    <glyph glyph-name="aring" unicode="&#xe5;" horiz-adv-x="500" 
d="M473 0h-174q-5 15 -11 61h-2q-15 -35 -48 -55t-74 -20q-77 0 -113.5 42.5t-36.5 116.5q0 76 32.5 115t117.5 59l71 17q29 7 41 20.5t12 38.5q0 50 -46 50q-27 0 -38.5 -15.5t-12.5 -56.5h-156q0 44 14 78t35 53t50 31t54.5 16t53.5 4q104 0 159 -37.5t55 -136.5v-264
q0 -85 17 -117zM232 107q56 0 56 89v65h-2q-4 -6 -13.5 -9.5t-23.5 -7t-24 -8.5q-37 -17 -37 -70q0 -27 12 -43t32 -16zM139 703q0 46 32.5 78.5t78.5 32.5t78.5 -32.5t32.5 -78.5t-32.5 -78.5t-78.5 -32.5t-78.5 32.5t-32.5 78.5zM205 703q0 -19 13 -32t32 -13t32 13t13 32
t-13 32t-32 13t-32 -13t-13 -32z" />
    <glyph glyph-name="ae" unicode="&#xe6;" horiz-adv-x="740" 
d="M559 338v24q0 44 -11 63.5t-39 19.5q-26 0 -37 -19.5t-11 -63.5v-24h98zM197 373h-156q0 56 17.5 93.5t49 56t64.5 25.5t76 7q38 0 76.5 -15.5t63.5 -44.5q44 60 141 60q104 0 151 -58.5t47 -201.5v-55h-266v-71q0 -73 48 -73q26 0 38 20.5t12 73.5h162q-2 -101 -50 -151
q-51 -53 -149 -53q-84 0 -124.5 21.5t-63.5 70.5q-26 -51 -65.5 -71.5t-98.5 -20.5q-77 0 -113.5 42.5t-36.5 116.5q0 76 32.5 115t117.5 59l71 17q28 7 40 20.5t12 38.5q0 50 -45 50q-27 0 -38.5 -15.5t-12.5 -56.5zM293 196v65h-2q-4 -6 -13 -9.5t-23 -7t-24 -8.5
q-37 -17 -37 -70q0 -27 12 -43t32 -16q55 0 55 89z" />
    <glyph glyph-name="ccedilla" unicode="&#xe7;" horiz-adv-x="481" 
d="M184 -90l41 76q-50 3 -84.5 16t-63.5 42.5t-43 83.5t-14 133q0 93 18 153.5t53.5 90t74.5 40t96 10.5q113 0 159 -58t46 -168h-162q0 61 -12 87q-11 23 -40 23q-31 0 -42 -35t-11 -134t11 -133.5t42 -34.5q26 0 39 20t13 69v35h162q0 -130 -48 -183q-44 -48 -134 -56
l-23 -44q13 5 29 5q39 0 65.5 -20.5t26.5 -58.5q0 -48 -35 -73.5t-95 -25.5q-62 0 -114 20l22 56q35 -16 68 -16q23 0 36.5 9.5t13.5 24.5q0 32 -41 32q-13 0 -29 -7z" />
    <glyph glyph-name="egrave" unicode="&#xe8;" horiz-adv-x="481" 
d="M467 240h-267v-71q0 -73 49 -73q26 0 38.5 20.5t12.5 73.5h162q-2 -100 -51 -151q-51 -53 -161 -53q-129 0 -179.5 64t-50.5 220q0 154 54 219.5t176 65.5q112 0 164.5 -58.5t52.5 -201.5v-55zM299 338v24q0 44 -11 63.5t-39 19.5q-27 0 -38 -19.5t-11 -63.5v-24h99z
M208 591l-96 146h168l44 -146h-116z" />
    <glyph glyph-name="eacute" unicode="&#xe9;" horiz-adv-x="481" 
d="M467 240h-267v-71q0 -73 49 -73q26 0 38.5 20.5t12.5 73.5h162q-2 -100 -51 -151q-51 -53 -161 -53q-129 0 -179.5 64t-50.5 220q0 154 54 219.5t176 65.5q112 0 164.5 -58.5t52.5 -201.5v-55zM299 338v24q0 44 -11 63.5t-39 19.5q-27 0 -38 -19.5t-11 -63.5v-24h99z
M168 591l44 146h168l-96 -146h-116z" />
    <glyph glyph-name="ecircumflex" unicode="&#xea;" horiz-adv-x="481" 
d="M467 240h-267v-71q0 -73 49 -73q26 0 38.5 20.5t12.5 73.5h162q-2 -100 -51 -151q-51 -53 -161 -53q-129 0 -179.5 64t-50.5 220q0 154 54 219.5t176 65.5q112 0 164.5 -58.5t52.5 -201.5v-55zM299 338v24q0 44 -11 63.5t-39 19.5q-27 0 -38 -19.5t-11 -63.5v-24h99z
M83 591l62 146h192l62 -146h-122l-36 80l-36 -80h-122z" />
    <glyph glyph-name="edieresis" unicode="&#xeb;" horiz-adv-x="481" 
d="M467 240h-267v-71q0 -73 49 -73q26 0 38.5 20.5t12.5 73.5h162q-2 -100 -51 -151q-51 -53 -161 -53q-129 0 -179.5 64t-50.5 220q0 154 54 219.5t176 65.5q112 0 164.5 -58.5t52.5 -201.5v-55zM299 338v24q0 44 -11 63.5t-39 19.5q-27 0 -38 -19.5t-11 -63.5v-24h99z
M83 588v140h134v-140h-134zM265 588v140h134v-140h-134z" />
    <glyph glyph-name="igrave" unicode="&#xec;" horiz-adv-x="258" 
d="M39 0v541h180v-541h-180zM90 591l-96 146h168l44 -146h-116z" />
    <glyph glyph-name="iacute" unicode="&#xed;" horiz-adv-x="258" 
d="M39 0v541h180v-541h-180zM50 591l44 146h168l-96 -146h-116z" />
    <glyph glyph-name="icircumflex" unicode="&#xee;" horiz-adv-x="258" 
d="M39 0v541h180v-541h-180zM-35 591l62 146h192l62 -146h-122l-36 80l-36 -80h-122z" />
    <glyph glyph-name="idieresis" unicode="&#xef;" horiz-adv-x="258" 
d="M39 0v541h180v-541h-180zM-35 588v140h134v-140h-134zM147 588v140h134v-140h-134z" />
    <glyph glyph-name="eth" unicode="&#xf0;" horiz-adv-x="500" 
d="M200 270q0 -102 10 -135t40 -33q31 0 40.5 33t9.5 135q0 85 -10 114.5t-40 29.5t-40 -29.5t-10 -114.5zM65 633l71 38q-29 29 -50 47l109 82q45 -36 69 -60l80 43l44 -69l-65 -35q157 -178 157 -393q0 -56 -4.5 -96t-18.5 -81t-38.5 -66t-67 -41t-101.5 -16
q-129 0 -179.5 62t-50.5 210t47.5 210t122.5 62q43 0 82 -25l2 2q-19 34 -79 102l-84 -45z" />
    <glyph glyph-name="ntilde" unicode="&#xf1;" 
d="M36 0v541h174v-66h2q35 80 131 80q66 0 103.5 -33t37.5 -114v-408h-180v357q0 34 -10 49t-34 15t-34 -15t-10 -49v-357h-180zM339 737h86q-7 -71 -34.5 -105.5t-65.5 -34.5q-30 0 -70 15t-51 15q-10 0 -16.5 -8.5t-6.5 -21.5h-86q18 140 98 140q26 0 65 -15
q45 -15 54 -15q23 0 27 30z" />
    <glyph glyph-name="ograve" unicode="&#xf2;" horiz-adv-x="500" 
d="M480 270q0 -48 -4 -84.5t-18.5 -76t-38.5 -65t-67 -42t-102 -16.5q-61 0 -104.5 15.5t-67.5 39t-37.5 63.5t-17 76.5t-3.5 90.5q0 48 4 84.5t18.5 76t38.5 65t67 42t102 16.5q61 0 104.5 -15.5t67.5 -39t37.5 -63.5t17 -76.5t3.5 -90.5zM200 270q0 -102 10 -135t40 -33
q31 0 40.5 33t9.5 135q0 103 -9.5 136t-40.5 33q-30 0 -40 -33.5t-10 -135.5zM217 591l-96 146h168l44 -146h-116z" />
    <glyph glyph-name="oacute" unicode="&#xf3;" horiz-adv-x="500" 
d="M480 270q0 -48 -4 -84.5t-18.5 -76t-38.5 -65t-67 -42t-102 -16.5q-61 0 -104.5 15.5t-67.5 39t-37.5 63.5t-17 76.5t-3.5 90.5q0 48 4 84.5t18.5 76t38.5 65t67 42t102 16.5q61 0 104.5 -15.5t67.5 -39t37.5 -63.5t17 -76.5t3.5 -90.5zM200 270q0 -102 10 -135t40 -33
q31 0 40.5 33t9.5 135q0 103 -9.5 136t-40.5 33q-30 0 -40 -33.5t-10 -135.5zM177 591l44 146h168l-96 -146h-116z" />
    <glyph glyph-name="ocircumflex" unicode="&#xf4;" horiz-adv-x="500" 
d="M480 270q0 -48 -4 -84.5t-18.5 -76t-38.5 -65t-67 -42t-102 -16.5q-61 0 -104.5 15.5t-67.5 39t-37.5 63.5t-17 76.5t-3.5 90.5q0 48 4 84.5t18.5 76t38.5 65t67 42t102 16.5q61 0 104.5 -15.5t67.5 -39t37.5 -63.5t17 -76.5t3.5 -90.5zM200 270q0 -102 10 -135t40 -33
q31 0 40.5 33t9.5 135q0 103 -9.5 136t-40.5 33q-30 0 -40 -33.5t-10 -135.5zM92 591l62 146h192l62 -146h-122l-36 80l-36 -80h-122z" />
    <glyph glyph-name="otilde" unicode="&#xf5;" horiz-adv-x="500" 
d="M480 270q0 -48 -4 -84.5t-18.5 -76t-38.5 -65t-67 -42t-102 -16.5q-61 0 -104.5 15.5t-67.5 39t-37.5 63.5t-17 76.5t-3.5 90.5q0 48 4 84.5t18.5 76t38.5 65t67 42t102 16.5q61 0 104.5 -15.5t67.5 -39t37.5 -63.5t17 -76.5t3.5 -90.5zM200 270q0 -102 10 -135t40 -33
q31 0 40.5 33t9.5 135q0 103 -9.5 136t-40.5 33q-30 0 -40 -33.5t-10 -135.5zM329 737h86q-7 -71 -34.5 -105.5t-65.5 -34.5q-30 0 -70 15t-51 15q-10 0 -16.5 -8.5t-6.5 -21.5h-86q18 140 98 140q26 0 65 -15q45 -15 54 -15q23 0 27 30z" />
    <glyph glyph-name="odieresis" unicode="&#xf6;" horiz-adv-x="500" 
d="M480 270q0 -48 -4 -84.5t-18.5 -76t-38.5 -65t-67 -42t-102 -16.5q-61 0 -104.5 15.5t-67.5 39t-37.5 63.5t-17 76.5t-3.5 90.5q0 48 4 84.5t18.5 76t38.5 65t67 42t102 16.5q61 0 104.5 -15.5t67.5 -39t37.5 -63.5t17 -76.5t3.5 -90.5zM200 270q0 -102 10 -135t40 -33
q31 0 40.5 33t9.5 135q0 103 -9.5 136t-40.5 33q-30 0 -40 -33.5t-10 -135.5zM92 588v140h134v-140h-134zM274 588v140h134v-140h-134z" />
    <glyph glyph-name="divide" unicode="&#xf7;" horiz-adv-x="600" 
d="M47 183v140h506v-140h-506zM201 465q0 41 29 70t70 29t70 -29t29 -70t-29 -70t-70 -29t-70 29t-29 70zM201 41q0 41 29 70t70 29t70 -29t29 -70t-29 -70t-70 -29t-70 29t-29 70z" />
    <glyph glyph-name="oslash" unicode="&#xf8;" horiz-adv-x="500" 
d="M298 290l-88 -151q9 -37 40 -37t40.5 33t9.5 135v20h-2zM201 252l90 152q-10 35 -41 35q-30 0 -40 -33.5t-10 -135.5q0 -14 1 -18zM35 -26l41 70q-34 35 -45 90t-11 137q0 48 4 84.5t18.5 76t38.5 65t67 42t102 16.5q71 0 119 -20l40 68l56 -36l-42 -70q34 -35 45.5 -90
t11.5 -137q0 -48 -4 -84.5t-18.5 -76t-38.5 -65t-67 -42t-102 -16.5q-77 0 -119 21l-42 -69z" />
    <glyph glyph-name="ugrave" unicode="&#xf9;" 
d="M36 133v408h180v-357q0 -34 10 -49t34 -15t34 15t10 49v357h180v-541h-174v66h-2q-35 -80 -131 -80q-66 0 -103.5 33t-37.5 114zM227 591l-96 146h168l44 -146h-116z" />
    <glyph glyph-name="uacute" unicode="&#xfa;" 
d="M36 133v408h180v-357q0 -34 10 -49t34 -15t34 15t10 49v357h180v-541h-174v66h-2q-35 -80 -131 -80q-66 0 -103.5 33t-37.5 114zM187 591l44 146h168l-96 -146h-116z" />
    <glyph glyph-name="ucircumflex" unicode="&#xfb;" 
d="M36 133v408h180v-357q0 -34 10 -49t34 -15t34 15t10 49v357h180v-541h-174v66h-2q-35 -80 -131 -80q-66 0 -103.5 33t-37.5 114zM102 591l62 146h192l62 -146h-122l-36 80l-36 -80h-122z" />
    <glyph glyph-name="udieresis" unicode="&#xfc;" 
d="M36 133v408h180v-357q0 -34 10 -49t34 -15t34 15t10 49v357h180v-541h-174v66h-2q-35 -80 -131 -80q-66 0 -103.5 33t-37.5 114zM102 588v140h134v-140h-134zM284 588v140h134v-140h-134z" />
    <glyph glyph-name="yacute" unicode="&#xfd;" horiz-adv-x="463" 
d="M50 -172v126q17 -4 40 -4q30 0 45 14.5t15 26.5t-8 40l-143 510h186l55 -365h2l52 365h180l-145 -559q-23 -91 -63 -124.5t-115 -33.5q-61 0 -101 4zM159 591l44 146h168l-96 -146h-116z" />
    <glyph glyph-name="thorn" unicode="&#xfe;" 
d="M39 -176v890h180v-247h2q17 46 45 67t72 21q89 0 125.5 -71t36.5 -225q0 -150 -41.5 -211.5t-124.5 -61.5q-88 0 -113 75h-2v-237h-180zM219 271q0 -89 10 -120t40 -31q31 0 41 31t10 120t-10 119.5t-41 30.5q-30 0 -40 -31t-10 -119z" />
    <glyph glyph-name="ydieresis" unicode="&#xff;" horiz-adv-x="463" 
d="M50 -172v126q17 -4 40 -4q30 0 45 14.5t15 26.5t-8 40l-143 510h186l55 -365h2l52 365h180l-145 -559q-23 -91 -63 -124.5t-115 -33.5q-61 0 -101 4zM74 588v140h134v-140h-134zM256 588v140h134v-140h-134z" />
    <glyph glyph-name="dotlessi" unicode="&#x131;" horiz-adv-x="258" 
d="M39 0v541h180v-541h-180z" />
    <glyph glyph-name="Lslash" unicode="&#x141;" horiz-adv-x="463" 
d="M44 0v215l-58 -37v116l58 37v383h186v-265l124 79v-116l-124 -79v-181h229v-152h-415z" />
    <glyph glyph-name="lslash" unicode="&#x142;" horiz-adv-x="278" 
d="M49 0v270l-58 -36v110l58 36v334h180v-224l58 36v-110l-58 -36v-380h-180z" />
    <glyph glyph-name="OE" unicode="&#x152;" horiz-adv-x="759" 
d="M511 294v-142h232v-152h-384v31h-2q-37 -45 -123 -45q-126 0 -168.5 80.5t-42.5 290.5q0 206 47 288.5t159 82.5q84 0 130 -45v31h375v-152h-223v-122h208v-146h-208zM209 357q0 -151 11 -198t54 -47q41 0 52 47t11 198t-11 198t-52 47q-43 0 -54 -47t-11 -198z" />
    <glyph glyph-name="oe" unicode="&#x153;" horiz-adv-x="740" 
d="M193 270q0 -102 10 -135t40 -33q31 0 40.5 33t9.5 135q0 103 -9.5 136t-40.5 33q-30 0 -40 -33.5t-10 -135.5zM461 362v-24h98v24q0 44 -11 63.5t-39 19.5q-26 0 -37 -19.5t-11 -63.5zM559 190h162q-2 -101 -50 -151q-51 -53 -149 -53q-116 0 -149 67q-42 -67 -146 -67
q-114 0 -164 64.5t-50 219.5q0 153 52.5 219t175.5 66q44 0 84 -18t56 -43q54 61 148 61q104 0 151 -58.5t47 -201.5v-55h-266v-71q0 -73 48 -73q26 0 38 20.5t12 73.5z" />
    <glyph glyph-name="Scaron" unicode="&#x160;" horiz-adv-x="537" 
d="M496 508h-174v17q0 33 -13.5 55t-39.5 22q-28 0 -43 -18.5t-15 -44.5q0 -38 31.5 -62.5t76 -41.5t89 -39t76 -70t31.5 -120q0 -220 -253 -220q-120 0 -180 47t-60 154v25h180v-17q0 -83 61 -83q28 0 44 19.5t16 49.5q0 28 -16 48.5t-42 33.5t-57 25t-62 28t-57 38.5
t-42 61t-16 89.5q0 109 58.5 166t175.5 57q121 0 176 -52.5t55 -167.5zM173 764l-62 146h122l36 -80l36 80h122l-62 -146h-192z" />
    <glyph glyph-name="scaron" unicode="&#x161;" horiz-adv-x="463" 
d="M17 168h158q0 -36 13 -53q14 -19 38 -19q22 0 37 12.5t15 33.5q0 26 -27 42t-65 27t-76.5 27.5t-65.5 53.5t-27 94q0 75 55 122t160 47q203 0 203 -170h-156q0 60 -48 60q-21 0 -33.5 -11.5t-12.5 -30.5q0 -24 27 -38t65.5 -24.5t76.5 -26t65 -52.5t27 -95
q0 -80 -58.5 -130.5t-158.5 -50.5q-111 0 -161.5 45.5t-50.5 136.5zM136 591l-62 146h122l36 -80l36 80h122l-62 -146h-192z" />
    <glyph glyph-name="Ydieresis" unicode="&#x178;" 
d="M167 0v281l-182 433h204l70 -249h2l70 249h204l-182 -433v-281h-186zM102 761v140h134v-140h-134zM284 761v140h134v-140h-134z" />
    <glyph glyph-name="Zcaron" unicode="&#x17d;" horiz-adv-x="481" 
d="M20 0v134l224 428h-209v152h426v-134l-228 -428h228v-152h-441zM145 764l-62 146h122l36 -80l36 80h122l-62 -146h-192z" />
    <glyph glyph-name="zcaron" unicode="&#x17e;" horiz-adv-x="444" 
d="M23 401v140h402v-134l-202 -267h207v-140h-416v140l194 261h-185zM126 591l-62 146h122l36 -80l36 80h122l-62 -146h-192z" />
    <glyph glyph-name="florin" unicode="&#x192;" 
d="M60 316l20 104h107l23 120q17 91 68.5 132.5t149.5 41.5q30 0 82 -8l-23 -110q-22 2 -34 2q-30 0 -49 -19.5t-30 -72.5l-19 -86h111l-20 -104h-109l-57 -295q-23 -119 -73.5 -158t-141.5 -39q-39 0 -91 8l25 108h42q31 0 46.5 20.5t27.5 81.5l51 274h-106z" />
    <glyph glyph-name="circumflex" unicode="&#x2c6;" horiz-adv-x="260" 
d="M-28 591l62 146h192l62 -146h-122l-36 80l-36 -80h-122z" />
    <glyph glyph-name="caron" unicode="&#x2c7;" horiz-adv-x="260" 
d="M34 591l-62 146h122l36 -80l36 80h122l-62 -146h-192z" />
    <glyph glyph-name="uni02C9" unicode="&#x2c9;" horiz-adv-x="260" 
d="M-28 616v98h316v-98h-316z" />
    <glyph glyph-name="breve" unicode="&#x2d8;" horiz-adv-x="260" 
d="M-21 737h80q3 -34 23 -50t48 -16t48 16t23 50h80q-5 -68 -43 -107t-108 -39t-108 39t-43 107z" />
    <glyph glyph-name="dotaccent" unicode="&#x2d9;" horiz-adv-x="260" 
d="M63 588v140h134v-140h-134z" />
    <glyph glyph-name="ring" unicode="&#x2da;" horiz-adv-x="260" 
d="M19 703q0 46 32.5 78.5t78.5 32.5t78.5 -32.5t32.5 -78.5t-32.5 -78.5t-78.5 -32.5t-78.5 32.5t-32.5 78.5zM85 703q0 -19 13 -32t32 -13t32 13t13 32t-13 32t-32 13t-32 -13t-13 -32z" />
    <glyph glyph-name="ogonek" unicode="&#x2db;" horiz-adv-x="260" 
d="M231 -154l22 -52q-49 -24 -128 -24q-114 0 -114 87q0 78 98 126l47 23h80l-71 -54q-50 -39 -50 -79q0 -43 38 -43q43 0 78 16z" />
    <glyph glyph-name="tilde" unicode="&#x2dc;" horiz-adv-x="260" 
d="M209 737h86q-7 -71 -34.5 -105.5t-65.5 -34.5q-30 0 -70 15t-51 15q-10 0 -16.5 -8.5t-6.5 -21.5h-86q18 140 98 140q26 0 65 -15q45 -15 54 -15q23 0 27 30z" />
    <glyph glyph-name="hungarumlaut" unicode="&#x2dd;" horiz-adv-x="260" 
d="M-53 591l44 146h168l-96 -146h-116zM147 591l44 146h168l-96 -146h-116z" />
    <glyph glyph-name="uni03A9" unicode="&#x3a9;" horiz-adv-x="645" 
d="M144 125v3q-104 114 -104 265q0 127 79 220.5t205 93.5q68 0 123 -29.5t87.5 -75.5t49.5 -98t17 -102q0 -82 -30.5 -154t-74.5 -120v-3h119v-125h-257v91q38 27 61 89q28 74 28 186q0 93 -32.5 151.5t-91.5 58.5t-94 -59.5t-35 -156.5q0 -103 26 -173.5t64 -95.5v-91
h-258v125h118z" />
    <glyph glyph-name="uni03BC" unicode="&#x3bc;" 
d="M36 -176v717h180v-357q0 -34 10 -49t34 -15t34 15t10 49v357h180v-541h-174v66h-2q-34 -80 -77 -80q-9 0 -15 3v-165h-180z" />
    <glyph glyph-name="pi" unicode="&#x3c0;" horiz-adv-x="582" 
d="M562 394h-60v-251q0 -85 12 -143h-146q-17 33 -17 140v254h-103q-4 -85 -18.5 -200.5t-36.5 -193.5h-146q22 92 37 207t16 187q-51 0 -83 -8l-15 104q41 36 166 36h404z" />
    <glyph glyph-name="uni2010" unicode="&#x2010;" horiz-adv-x="368" 
d="M28 213v152h312v-152h-312z" />
    <glyph glyph-name="endash" unicode="&#x2013;" horiz-adv-x="500" 
d="M0 216v146h500v-146h-500z" />
    <glyph glyph-name="emdash" unicode="&#x2014;" horiz-adv-x="1000" 
d="M0 216v146h1000v-146h-1000z" />
    <glyph glyph-name="quoteleft" unicode="&#x2018;" horiz-adv-x="260" 
d="M46 340v180q0 98 40 145.5t128 48.5v-86q-35 -4 -49.5 -23.5t-14.5 -60.5v-12h64v-192h-168z" />
    <glyph glyph-name="quoteright" unicode="&#x2019;" horiz-adv-x="260" 
d="M46 522v192h168v-180q0 -98 -40 -145.5t-128 -48.5v86q35 4 49.5 23.5t14.5 60.5v12h-64z" />
    <glyph glyph-name="quotesinglbase" unicode="&#x201a;" horiz-adv-x="260" 
d="M46 6v192h168v-180q0 -98 -40 -145.5t-128 -48.5v86q35 4 49.5 23.5t14.5 60.5v12h-64z" />
    <glyph glyph-name="quotedblleft" unicode="&#x201c;" horiz-adv-x="481" 
d="M271 340v180q0 98 40 145.5t128 48.5v-86q-35 -4 -49.5 -23.5t-14.5 -60.5v-12h64v-192h-168zM42 340v180q0 98 40 145.5t128 48.5v-86q-35 -4 -49.5 -23.5t-14.5 -60.5v-12h64v-192h-168z" />
    <glyph glyph-name="quotedblright" unicode="&#x201d;" horiz-adv-x="481" 
d="M42 522v192h168v-180q0 -98 -40 -145.5t-128 -48.5v86q35 4 49.5 23.5t14.5 60.5v12h-64zM271 522v192h168v-180q0 -98 -40 -145.5t-128 -48.5v86q35 4 49.5 23.5t14.5 60.5v12h-64z" />
    <glyph glyph-name="quotedblbase" unicode="&#x201e;" horiz-adv-x="481" 
d="M42 6v192h168v-180q0 -98 -40 -145.5t-128 -48.5v86q35 4 49.5 23.5t14.5 60.5v12h-64zM271 6v192h168v-180q0 -98 -40 -145.5t-128 -48.5v86q35 4 49.5 23.5t14.5 60.5v12h-64z" />
    <glyph glyph-name="dagger" unicode="&#x2020;" 
d="M170 520v194h180v-194h162v-140h-162v-520h-180v520h-162v140h162z" />
    <glyph glyph-name="daggerdbl" unicode="&#x2021;" 
d="M8 54v140h162v186h-162v140h162v194h180v-194h162v-140h-162v-186h162v-140h-162v-194h-180v194h-162z" />
    <glyph glyph-name="bullet" unicode="&#x2022;" horiz-adv-x="500" 
d="M72 357q0 73 52 125.5t126 52.5t126 -52.5t52 -125.5t-52 -125.5t-126 -52.5t-126 52.5t-52 125.5z" />
    <glyph glyph-name="ellipsis" unicode="&#x2026;" horiz-adv-x="1000" 
d="M83 0v198h168v-198h-168zM416 0v198h168v-198h-168zM749 0v198h168v-198h-168z" />
    <glyph glyph-name="perthousand" unicode="&#x2030;" horiz-adv-x="1111" 
d="M558 178q0 -69 6.5 -90.5t28.5 -21.5t28.5 21.5t6.5 90.5t-6.5 90.5t-28.5 21.5t-28.5 -21.5t-6.5 -90.5zM167 -14l317 722h110l-317 -722h-110zM134 516q0 -69 6.5 -90.5t28.5 -21.5t28.5 21.5t6.5 90.5t-6.5 90.5t-28.5 21.5t-28.5 -21.5t-6.5 -90.5zM436 178
q0 105 34.5 148.5t122.5 43.5t122.5 -43.5t34.5 -148.5t-34.5 -148.5t-122.5 -43.5t-122.5 43.5t-34.5 148.5zM12 516q0 105 34.5 148.5t122.5 43.5t122.5 -43.5t34.5 -148.5t-34.5 -148.5t-122.5 -43.5t-122.5 43.5t-34.5 148.5zM785 178q0 105 34.5 148.5t122.5 43.5
t122.5 -43.5t34.5 -148.5t-34.5 -148.5t-122.5 -43.5t-122.5 43.5t-34.5 148.5zM907 178q0 -69 6.5 -90.5t28.5 -21.5t28.5 21.5t6.5 90.5t-6.5 90.5t-28.5 21.5t-28.5 -21.5t-6.5 -90.5z" />
    <glyph glyph-name="guilsinglleft" unicode="&#x2039;" horiz-adv-x="240" 
d="M42 179v220l156 104v-158l-84 -56l84 -56v-158z" />
    <glyph glyph-name="guilsinglright" unicode="&#x203a;" horiz-adv-x="240" 
d="M42 75v158l84 56l-84 56v158l156 -104v-220z" />
    <glyph glyph-name="fraction" unicode="&#x2044;" horiz-adv-x="167" 
d="M-165 -31l387 756h110l-387 -756h-110z" />
    <glyph glyph-name="Euro" unicode="&#x20ac;" 
d="M491 674l-52 -158q-41 76 -98 76q-33 0 -51.5 -19t-22.5 -41.5t-4 -56.5h168l-27 -98h-142v-36v-14h134l-27 -98h-105q0 -3 1 -17.5t1.5 -19.5t1.5 -18t3.5 -19t5.5 -16t8.5 -15t12 -10.5t16 -8t20.5 -2.5q76 0 140 113v-181q-65 -50 -160 -50q-117 0 -166.5 61.5
t-55.5 182.5h-61l27 98h31v41v9h-53l27 98h30q9 121 62 179.5t171 58.5q76 0 165 -39z" />
    <glyph glyph-name="afii61289" unicode="&#x2113;" horiz-adv-x="496" 
d="M425 196l57 -63q-69 -144 -204 -144q-85 0 -128.5 42.5t-51.5 110.5v10q-6 -4 -22 -17t-25 -19l-34 79q10 9 37.5 32t41.5 37v243q0 122 51.5 189t132.5 67q69 0 103.5 -51t34.5 -134q0 -150 -175 -330v-54q2 -38 21 -60.5t50 -22.5q56 0 111 85zM243 499v-112
q40 52 63.5 106.5t23.5 94.5q0 66 -41 66q-46 0 -46 -155z" />
    <glyph glyph-name="trademark" unicode="&#x2122;" horiz-adv-x="1000" 
d="M114 302v308h-104v104h348v-104h-104v-308h-140zM830 302v260h-2l-90 -260h-86l-90 260h-2v-260h-128v412h174l89 -219l89 219h174v-412h-128z" />
    <glyph glyph-name="Omega" unicode="&#x2126;" horiz-adv-x="645" 
d="M144 125v3q-104 114 -104 265q0 127 79 220.5t205 93.5q68 0 123 -29.5t87.5 -75.5t49.5 -98t17 -102q0 -82 -30.5 -154t-74.5 -120v-3h119v-125h-257v91q38 27 61 89q28 74 28 186q0 93 -32.5 151.5t-91.5 58.5t-94 -59.5t-35 -156.5q0 -103 26 -173.5t64 -95.5v-91
h-258v125h118z" />
    <glyph glyph-name="estimated" unicode="&#x212e;" horiz-adv-x="870" 
d="M836 337h-650q-5 0 -5 -4v-197q0 -13 9 -22q104 -107 245 -107q76 0 143 32t116 87h57q-54 -64 -138 -101.5t-179 -37.5q-166 0 -283 105.5t-117 254.5t117 255t283 106t284 -106t118 -255v-10zM688 363v197q0 14 -9 24q-104 102 -244 102t-244 -106q-10 -9 -10 -24v-193
q0 -7 5 -7h498q4 0 4 7z" />
    <glyph glyph-name="partialdiff" unicode="&#x2202;" horiz-adv-x="558" 
d="M100 613l-39 118q75 57 180 57q115 0 192.5 -99t77.5 -280q0 -196 -72.5 -307t-201.5 -111q-64 0 -112 38t-69.5 91t-21.5 109q0 122 58.5 194t146.5 72q45 0 77.5 -20.5t45.5 -43.5h1q1 6 1 27q0 76 -39.5 139t-104.5 63q-64 0 -120 -47zM252 121h1q27 0 49 31.5
t33.5 72t15.5 82.5q-6 22 -27.5 43t-53.5 21q-39 0 -63 -45t-24 -105q0 -42 19 -71t50 -29z" />
    <glyph glyph-name="Delta" unicode="&#x2206;" horiz-adv-x="618" 
d="M23 0v87l200 622h181l190 -619v-90h-571zM178 124h257l-78 232q-6 27 -24.5 92t-23.5 87h-2q-3 -16 -20.5 -75.5t-24.5 -89.5z" />
    <glyph glyph-name="product" unicode="&#x220f;" horiz-adv-x="693" 
d="M668 555h-89v-651h-151v651h-164v-651h-151v651h-89v141h644v-141z" />
    <glyph glyph-name="summation" unicode="&#x2211;" horiz-adv-x="524" 
d="M508 -96h-485v99l210 300l-204 285v108h464v-130h-266v-3l175 -232l-199 -280v-3h305v-144z" />
    <glyph glyph-name="minus" unicode="&#x2212;" horiz-adv-x="600" 
d="M47 183v140h506v-140h-506z" />
    <glyph glyph-name="uni2215" unicode="&#x2215;" horiz-adv-x="167" 
d="M-165 -31l387 756h110l-387 -756h-110z" />
    <glyph glyph-name="uni2219" unicode="&#x2219;" horiz-adv-x="260" 
d="M31 274q0 41 29 70t70 29t70 -29t29 -70t-29 -70t-70 -29t-70 29t-29 70z" />
    <glyph glyph-name="radical" unicode="&#x221a;" horiz-adv-x="572" 
d="M582 841l-211 -972h-118l-130 419l-70 -28l-23 85l182 75l80 -276q4 -22 20 -98l2 -1q9 70 16 108l150 688h102z" />
    <glyph glyph-name="infinity" unicode="&#x221e;" horiz-adv-x="753" 
d="M708 287v-1q0 -80 -48 -128.5t-112 -48.5q-46 0 -86.5 22.5t-83.5 84.5q-41 -53 -81.5 -80t-95.5 -27q-63 0 -110 48t-47 123q0 77 47.5 125.5t118.5 48.5q52 0 92 -25t79 -77q46 54 73 72q45 31 98 30q66 0 111 -46t45 -121zM212 190h1q34 0 61 22t60 64l-22.5 32.5
t-20 25t-24.5 24t-24.5 12t-32.5 6.5q-39 0 -61.5 -26.5t-22.5 -70.5q0 -37 25 -63t61 -26zM545 376h-1q-12 0 -22.5 -2.5t-21.5 -10t-18 -12t-18.5 -17t-15 -16t-15 -18.5t-12.5 -16q42 -56 68 -75t61 -19q34 0 55 29t21 61q0 40 -22.5 68t-58.5 28z" />
    <glyph glyph-name="integral" unicode="&#x222b;" horiz-adv-x="407" 
d="M378 857l-13 -107q-17 7 -33 7q-30 0 -46 -26q-22 -31 -22 -161q0 -80 7 -224.5t7 -241.5q0 -138 -30 -199q-20 -43 -58.5 -63.5t-82.5 -20.5q-50 0 -80 16l17 110q20 -9 39 -9q27 0 39 18q21 31 21 145q0 98 -7 247t-7 236q0 90 14 143.5t46 89.5q44 50 126 50
q39 0 63 -10z" />
    <glyph glyph-name="approxequal" unicode="&#x2248;" horiz-adv-x="512" 
d="M426 458l51 -47q-23 -48 -58 -77t-73 -29q-47 0 -103 37q-47 33 -77 33q-37 0 -68 -47q-2 -3 -14 -22l-52 47q21 46 58.5 75.5t82.5 29.5q10 0 18.5 -1t17 -3.5t14 -4t14 -6t11.5 -6t11.5 -7t9.5 -5.5l10.5 -7t10 -6.5t9 -5.5t9 -5t7.5 -4t8 -4t7.5 -2t8 -1.5t7.5 -0.5
q24 0 41 17t39 52zM426 268l51 -47q-22 -48 -57.5 -77.5t-74.5 -29.5q-44 0 -102 38q-49 33 -77 33q-8 0 -15 -2t-12 -4t-11.5 -7.5t-9.5 -8.5t-9 -11t-8.5 -11t-8.5 -12.5t-8 -12.5l-52 47q21 45 59 75t81 30q10 0 19 -1t17.5 -3.5t14 -4t14 -6t11 -6l12.5 -7.5l9 -5
q6 -3 16.5 -10t16 -10.5t13.5 -7.5t15.5 -6t15.5 -2q17 0 32 10.5t23.5 22t24.5 36.5z" />
    <glyph glyph-name="notequal" unicode="&#x2260;" horiz-adv-x="512" 
d="M385 510l-34 -79h116v-86h-146l-51 -126h197v-86h-228l-44 -106l-67 25l34 81h-118v86h149l51 126h-200v86h231l43 104z" />
    <glyph glyph-name="lessequal" unicode="&#x2264;" horiz-adv-x="512" 
d="M464 98l-415 217v93l415 217v-100l-335 -162v-2l335 -163v-100zM469 -24h-423v87h423v-87z" />
    <glyph glyph-name="greaterequal" unicode="&#x2265;" horiz-adv-x="512" 
d="M52 625l415 -217v-94l-415 -216v100l334 163v2l-334 162v100zM467 -24h-420v87h420v-87z" />
    <glyph glyph-name="lozenge" unicode="&#x25ca;" horiz-adv-x="570" 
d="M526 347l-184 -398h-122l-174 398l182 399h122zM393 344l-86 207q-12 38 -18 69h-4q-6 -31 -18 -69l-89 -200l88 -213q12 -42 15 -64h5q13 52 17 61z" />
    <glyph glyph-name="fi" unicode="&#xfb01;" horiz-adv-x="556" 
d="M337 0v541h180v-541h-180zM337 580v134h180v-134h-180zM62 0v420h-62v121h62v39q0 82 37 115t130 33q44 0 86 -6v-113q-13 3 -30 3q-18 0 -30.5 -9.5t-12.5 -28.5v-33h73v-121h-73v-420h-180z" />
    <glyph glyph-name="fl" unicode="&#xfb02;" horiz-adv-x="556" 
d="M337 0v714h180v-714h-180zM62 0v420h-62v121h62v39q0 82 37 115t130 33q44 0 86 -6v-113q-13 3 -30 3q-18 0 -30.5 -9.5t-12.5 -28.5v-33h73v-121h-73v-420h-180z" />
    <glyph glyph-name="a.superior" horiz-adv-x="352" 
d="M140 604h-116q0 65 39.5 87.5t109.5 22.5q92 0 125 -23t33 -81v-159q0 -49 11 -71h-131q-4 9 -8 38h-2q-9 -22 -30 -33q-21 -12 -48 -12q-113 0 -113 95q0 45 23.5 66.5t89.5 37.5l46 11q34 8 34 35q0 22 -30 22q-17 0 -24.5 -8t-8.5 -28zM203 507v32h-2q-3 -4 -8.5 -6.5
t-15 -4.5t-15.5 -5q-24 -11 -24 -42q0 -11 8 -19.5t21 -8.5q36 0 36 54z" />
    <glyph glyph-name="o.superior" horiz-adv-x="352" 
d="M10 543q0 95 35 133t131 38t131 -38t35 -133t-35 -132.5t-131 -37.5t-131 37.5t-35 132.5zM144 543q0 -53 6.5 -71.5t25.5 -18.5t25.5 18t6.5 72t-6.5 72.5t-25.5 18.5t-25.5 -18.5t-6.5 -72.5z" />
    <glyph glyph-name="one.superior" horiz-adv-x="333" 
d="M109 280v282h-87v80q57 1 83.5 14.5t39.5 51.5h104v-428h-140z" />
    <glyph glyph-name="two.superior" horiz-adv-x="370" 
d="M147 556h-128q0 80 28 112q34 40 136 40q97 0 132.5 -30.5t35.5 -86.5q0 -65 -58 -118l-71 -65q-25 -23 -30 -36h159v-92h-322q0 99 69 164l80 76q33 30 33 70q0 38 -32 38t-32 -58v-14z" />
    <glyph glyph-name="three.superior" horiz-adv-x="370" 
d="M146 582h-122q0 64 38 96q36 30 120 30q93 0 127 -28.5t34 -89.5q0 -71 -64 -86v-2q75 -11 75 -92q0 -71 -40.5 -104t-128.5 -33q-91 0 -129.5 29.5t-39.5 104.5h128q0 -20 10 -38q9 -16 27 -16q20 0 26.5 11t6.5 44q0 31 -10 42t-34 11h-31v74h18q28 0 40 12t12 45
q0 36 -30 36q-33 0 -33 -46z" />
    </font>
</defs>
</svg>
